/* XPM */
static char * C:\Users\Utilisateur\Desktop\attack_1_xpm[] = {
"43 46 23 1",
" 	c None",
".	c #9FBBBA",
"+	c #6C767A",
"@	c #33383A",
"#	c #1F2527",
"$	c #F6F3D9",
"%	c #121515",
"&	c #495154",
"*	c #A8C0AF",
"=	c #0D0F0F",
"-	c #071213",
";	c #9B0C2E",
">	c #EFEFCB",
",	c #612D3F",
"'	c #DEAA87",
")	c #B0B08F",
"!	c #141818",
"~	c #5D858D",
"{	c #3A1A13",
"]	c #86593B",
"^	c #722E15",
"/	c #566165",
"(	c #202728",
"                       .+  ...             ",
"                      @.@..@++             ",
"                      @++++@++             ",
"                      @##++@#@             ",
"                $$$$$$+@@##@##             ",
"            $$$$$$$$$ +%@%%@%%#            ",
"          $$$$$$$$     %@#@&&&#            ",
"       **$$$$$$        %@#@&%%#            ",
"      ***$$$$          %@#@&&%#            ",
"     ***$$$$    == -;>,+##@&%%#>>>>>>>>>>>>",
"    ****$$$    == '';;,@@@#@@%+>>>>>>>>>>> ",
"   ****$$$     = '''--)%%@+%%%&+))))))))   ",
"  *****$$$      @''@;, %@+@%%%%&+          ",
"  *****$$       @++@...@+@%#%%%%&+         ",
" *****$$$      ..@@@+++.+@++#%&&&+=        ",
" *****$*      .+++@++++..@+&&&##&+!=       ",
"******$*      .+++@+++++.@+&####&+!=       ",
"******$        +++@+++@.+@+&##%%%!=!       ",
"*******               @++@&&####%=!!       ",
"*******               @+@%###%%%%!=!       ",
"*******                &%%#%%%%%#!!        ",
"******                 @&&#%%&&%#=         ",
"*~****                 &@@#&&##%{]         ",
"*~****                 ^&&###%#^{          ",
"*~*****                {^^^^^^^{{^         ",
"**~****                ^{{{{{{{{{{         ",
" *~****               ^^^^^^^{^{{{^        ",
" *~~***               ^^^^^^^^{{{{^        ",
" *~~~***              ^^^^^^^^{{{{^        ",
"  *~~~**             ^^^^^^^^^^{{{{^       ",
"   *~~~~             ^^^^^^^^{{{{{{^       ",
"    *~~~~            ^^^^^^^^^^{{{{{       ",
"     *~~~~           ^^^^^^^^^{{{{{{{      ",
"      **~~~         ^^^^^^{{{{{{{{{{{{     ",
"        ~~~~~        ^^^^^^^^{{{{{/{{{     ",
"          ~~~~~       ^^^!!{{^{{{////{     ",
"            ~~~~~        !!!{{{  .////     ",
"               ~~~~~~    =!!!!!   ..((     ",
"                   ~~~~~~~~~=!     (//     ",
"                         ~~~~~~~~~~.//     ",
"                          !!!      .//     ",
"                          !!!       //     ",
"                           ==       (((    ",
"                          ===       /((    ",
"                         ====       (((    ",
"                         ===        (((    "};
