/* XPM */
static char * C:\Users\Utilisateur\Desktop\attack_2_xpm[] = {
"51 44 23 1",
" 	c None",
".	c #9FBBBA",
"+	c #33383A",
"@	c #6C767A",
"#	c #5D858D",
"$	c #121515",
"%	c #F1F2CB",
"&	c #A8C0AF",
"*	c #0D0F0F",
"=	c #171B1B",
"-	c #86593B",
";	c #3A1A13",
">	c #722E15",
",	c #071213",
"'	c #DEAA87",
")	c #9B0C2E",
"!	c #EFEFCB",
"~	c #B0B08F",
"{	c #612D3F",
"]	c #F6F3D9",
"^	c #566165",
"/	c #141818",
"(	c #202728",
"                         .  .                      ",
"                      ..+@++@+..#####              ",
"                  ####@@+@+@@+@@#                  ",
"               #######+@@@+@@@@+                   ",
"             ##########$+.%..+$                    ",
"          ##########   ++$%$$++                    ",
"        ##########     $+$@$$+$                    ",
"      &#########       ++$$$$++                    ",
"     &#######          $+$$$$+$                    ",
"    &&######           +$+@@+$++@+                 ",
"   &&######              $++$$+@++...              ",
"   &######              .+$+++@+$.@@@              ",
"  &&#####              +@@+@@@@+$.@@@@             ",
"  &#####              *+.%+%...+$.@@@@             ",
" &&####              **+..+....+$$@@++++           ",
" &&####              =*+..+...@+$$++@@@@           ",
"&&&####              ==+@.+.@@@+$$$ .@@@           ",
"&&&&##              ===+@.+.@@+$$$   ..@+          ",
"&&&&##              **=+++++++$$$$   +++@          ",
"&&&&&#             ===*=+@.@++$$$$    @@@          ",
"&&&&&#          -*=*=== +++++$++$      @@@         ",
"&&&&&#         --*==*=  +@.@++$$;      .@@         ",
"&&&&&#         ---*=*  >+++++$+>;      ...         ",
"&&&&&&          --     ;>>>>>>>;;;     ,++         ",
"&&&&&&                 >;;;;;;;;;;     ,''         ",
"&&&&&&&                >>>>>>;>;;;;     ',,        ",
"&&&&&&&               >>>>>>>>;;;;;     ,))        ",
" &&&&&&&              >>>>>>>>>>>;;     ,)!        ",
" &&&&&&&             >>>>>>>>>>>>;;;    )~{{       ",
" &&&&&&&&            >>>>>>>>>>>>>;;    ){~!       ",
" &&&&&&&&&            >>>>>>>>>>>>;;;   ){~!!      ",
"  &]]]&&&&&           >>>>>>>>>>>>;;;;  ){ ~!      ",
"  &]]]]]]&&&          >>>>>>>>>>>>;;;;  ){ ~!!     ",
"   &]]]]]]]]&         >>;>>>>>>>;;^^^; ){   ~!     ",
"    &]]]]]]]]]         ;;;;;;>;;;^^^.^ {    ~!!    ",
"     &]]]]]]]]]         //;;;;;   ..((       ~!    ",
"      ]]]]]]]]]]]       ***/       (..       ~!!   ",
"        ]]]]]]]]]]]      //*       ^^.        ~!   ",
"          ]]]]]]]]]]]    //        ^^^        ~!!  ",
"            ]]]]]]]]]]   //         ^^         ~!  ",
"               ]]]]]]]]] **         (((        ~!! ",
"                 ]]]]]]]]]]         (^^         ~! ",
"                    ]]]]]]]]]]]]    ((((        ~!!",
"                       **]]]]]]]]]]  (((         ~!"};
