/* XPM */
static char * C:\Users\Utilisateur\Desktop\climb_2_xpm[] = {
"19 44 20 1",
" 	c None",
".	c #9FBBBA",
"+	c #33383A",
"@	c #6C767A",
"#	c #1F2527",
"$	c #121515",
"%	c #DEAA87",
"&	c #88532F",
"*	c #495154",
"=	c #190D09",
"-	c #555D60",
";	c #071213",
">	c #9B0C2E",
",	c #B0B08F",
"'	c #612D3F",
")	c #EFEFCB",
"!	c #3A1A13",
"~	c #722E15",
"{	c #202728",
"]	c #141818",
"        . .        ",
"     ..+@+@+..     ",
"    @@@+#@#+@@.    ",
"    @##@@@@@#@@    ",
"     $+#$$$#+$  %% ",
"      ++#$#++  %%% ",
"    &&$*****$  ### ",
"    ==#+$#$+#  --- ",
"  %%===*$#$*$  --@ ",
" %%%===$$#$$#. --@ ",
" ..@@==;####$#@--.#",
" @*#*;;>$$$$#**#-##",
".**#@;>,****$.@##-@",
"@**#@>,''###$@@#--@",
"@*##@>',)###$@@#--.",
"##*#*>',),$$#@*#-@ ",
" ###*>'#,)###@*#.. ",
"    #>'*,),*$##    ",
"    #>'##,)#$$#    ",
"    $'$#$,),$#$    ",
"    $#$$#$,)$#$    ",
"    !*#$#$,),**    ",
"    ~!$####,)#!    ",
"    ~!!$#$#,),!~   ",
"    ~!!!!!!!,)!~   ",
"   ~~!!!!!!!,),~   ",
"   ~~~!!!!!!!,)~   ",
"   ~~~!!!!~!~,),~  ",
"   ~~~!~!~~!~~,)~  ",
"  ~~~~~~~~~~~~~~~  ",
"  ~!~~~~~~~~~~~!~  ",
"  !!~~~~~~!~~~!!!  ",
"   !!~!~~~!!~!!!   ",
"    !!!!!!!!!!!    ",
"    {{!!!  !!{     ",
"    {{{]    {{     ",
"    **{]    ]{     ",
"    ***]   ]]]     ",
"     **]   ]]]     ",
"     *{     ]]     ",
"     {]            ",
"     {]]           ",
"     ]]]           ",
"     ]]            "};
