/* XPM */
static char * C:\Users\Utilisateur\Desktop\sprites\iddle_7_xpm[] = {
"27 46 19 1",
" 	c None",
".	c #9FBBBA",
"+	c #6C767A",
"@	c #33383A",
"#	c #121515",
"$	c #F1F2CB",
"%	c #0D0F0F",
"&	c #141818",
"*	c #3A1A13",
"=	c #722E15",
"-	c #86593B",
";	c #071213",
">	c #DEAA87",
",	c #9B0C2E",
"'	c #EFEFCB",
")	c #612D3F",
"!	c #B0B08F",
"~	c #566165",
"{	c #202728",
"                 . .       ",
"            +..@@.@.@.     ",
"            +++@++@+@+     ",
"            @++++.+++@     ",
"             ##@.$..       ",
"             #@@##.#       ",
"             ##@##+#       ",
"             #@@####       ",
"              #@####       ",
"              @@++++       ",
"            @+@#@@@@       ",
"         +..@@+@####.      ",
"         +++.#@+@@@#@.     ",
"        ++++.#@++++@++@    ",
"        ++++.#@...$@$.@    ",
"        +++@@#@....@..@%   ",
"         @@++#@+...@..@%   ",
"         +++.#@+++.@.+@&&  ",
"         +++.##@++.@.+@&&  ",
"        @+..####@@@@@@@&&  ",
"        +@@@##@#@@+.+@&&%& ",
"        +++  ##@#@@@@@&%&& ",
"        +++  *@#@@+.+@ &&% ",
"        ++.  *=@#@@@@@= %--",
"        ... ***=======* ---",
"        @@@;**********= ---",
"         >>;***=*======    ",
"        ;;>*****=======    ",
"        ,,;****========    ",
"        ',;****=========   ",
"       ))!,***==========   ",
"       '!),***==========   ",
"      ''!),**===========   ",
"      '! ),**==========    ",
"     ''!),,***=========    ",
"     '! ),~~**=====*==     ",
"    ''!), ~~~**==&&*=&     ",
"    '!    ..~~   &&&&      ",
"   ''!    {{.     &&&      ",
"   '!     .~{     &&%      ",
"  ''!     .~      %&&      ",
"  '!      ~~       &&      ",
" ''!     {{{       %%      ",
" '!      ~{{       %%%     ",
"''!     {{{{       %%%%    ",
"'!      {{{{       %%%%    "};
