/* XPM */
static char * C:\Users\Utilisateur\Desktop\item_xpm[] = {
"50 50 258 2",
"  	c None",
". 	c #010101",
"+ 	c #020202",
"@ 	c #000000",
"# 	c #8F801C",
"$ 	c #8E801E",
"% 	c #8E801D",
"& 	c #8F801E",
"* 	c #5A551C",
"= 	c #ECD419",
"- 	c #EDD416",
"; 	c #ECD417",
"> 	c #5E5815",
", 	c #54511E",
"' 	c #746F27",
") 	c #E8CF17",
"! 	c #E9CF15",
"~ 	c #E7D015",
"{ 	c #767022",
"] 	c #000001",
"^ 	c #B7A521",
"/ 	c #ECD418",
"( 	c #E6CE16",
"_ 	c #CCB309",
": 	c #CBB309",
"< 	c #E7CF17",
"[ 	c #B7A525",
"} 	c #010001",
"| 	c #B8A520",
"1 	c #EDD417",
"2 	c #E7CE15",
"3 	c #E7CF16",
"4 	c #EDD418",
"5 	c #B8A526",
"6 	c #020101",
"7 	c #1E1E1E",
"8 	c #1F1F20",
"9 	c #C8B82C",
"0 	c #E1CB24",
"a 	c #D6BF18",
"b 	c #CDB609",
"c 	c #D2BA0C",
"d 	c #EBD218",
"e 	c #EBD216",
"f 	c #EAD216",
"g 	c #EBD217",
"h 	c #FAE75D",
"i 	c #FDEC68",
"j 	c #F0DF53",
"k 	c #CBB92C",
"l 	c #202020",
"m 	c #1F1F1F",
"n 	c #D3C01F",
"o 	c #DAC210",
"p 	c #D0B90C",
"q 	c #FBE864",
"r 	c #FFEC6F",
"s 	c #F7E255",
"t 	c #EED416",
"u 	c #D4C123",
"v 	c #010103",
"w 	c #CEBC3E",
"x 	c #CDB935",
"y 	c #D3BC1B",
"z 	c #D6BD0E",
"A 	c #DEC612",
"B 	c #E4CB14",
"C 	c #E5CD15",
"D 	c #EDD419",
"E 	c #F9E657",
"F 	c #F9E75C",
"G 	c #F9E65C",
"H 	c #ECD318",
"I 	c #EED417",
"J 	c #F0DB37",
"K 	c #F2DB3D",
"L 	c #F4E048",
"M 	c #F9E65D",
"N 	c #F0DE55",
"O 	c #CEBA36",
"P 	c #CDBD3D",
"Q 	c #000101",
"R 	c #171402",
"S 	c #EDD62A",
"T 	c #D2BB0D",
"U 	c #DFC613",
"V 	c #EDD31A",
"W 	c #FDED68",
"X 	c #FEED70",
"Y 	c #FEED6A",
"Z 	c #F5DF46",
"` 	c #FFED6F",
" .	c #FAE863",
"..	c #ECD723",
"+.	c #1B1803",
"@.	c #171401",
"#.	c #EED62B",
"$.	c #D3BB0E",
"%.	c #DFC712",
"&.	c #EED622",
"*.	c #F5E14D",
"=.	c #F4E14C",
"-.	c #F5E14F",
";.	c #F5E150",
">.	c #F5E250",
",.	c #F4E14B",
"'.	c #DCC413",
").	c #DDC413",
"!.	c #EAD116",
"~.	c #FFED70",
"{.	c #EFD92C",
"].	c #FFED6E",
"^.	c #FEED6E",
"/.	c #EDD51E",
"(.	c #EBD317",
"_.	c #CAB308",
":.	c #E7CF15",
"<.	c #86812F",
"[.	c #87802B",
"}.	c #E6CE26",
"|.	c #E5CD16",
"1.	c #D8BF11",
"2.	c #D4BC0F",
"3.	c #E3C914",
"4.	c #F2DC3C",
"5.	c #F9E760",
"6.	c #F7E457",
"7.	c #F0DD3D",
"8.	c #88822D",
"9.	c #86802C",
"0.	c #0C0C0C",
"a.	c #7D7427",
"b.	c #EFD416",
"c.	c #EDD318",
"d.	c #CBB30A",
"e.	c #E6CE14",
"f.	c #EFDA2F",
"g.	c #FEED6F",
"h.	c #FEEE6F",
"i.	c #EDD41E",
"j.	c #7F7521",
"k.	c #060606",
"l.	c #0B0B0B",
"m.	c #7E7325",
"n.	c #EED516",
"o.	c #CBB308",
"p.	c #E6CD14",
"q.	c #F0D930",
"r.	c #FEEE6E",
"s.	c #ECD51E",
"t.	c #817423",
"u.	c #7E7326",
"v.	c #ECD41E",
"w.	c #7F7429",
"x.	c #EED720",
"y.	c #ECD621",
"z.	c #CBB307",
"A.	c #E6CE15",
"B.	c #EFD931",
"C.	c #FEEE6C",
"D.	c #EDD727",
"E.	c #EED721",
"F.	c #807624",
"G.	c #222007",
"H.	c #2B2706",
"I.	c #ECD529",
"J.	c #D4BB0D",
"K.	c #CCB509",
"L.	c #E0C611",
"M.	c #F4DF43",
"N.	c #FDEC6C",
"O.	c #FAE760",
"P.	c #EDD41F",
"Q.	c #EDD828",
"R.	c #2E2909",
"S.	c #231F07",
"T.	c #EDD62C",
"U.	c #EFD82C",
"V.	c #EDD520",
"W.	c #CBB208",
"X.	c #FAE862",
"Y.	c #EDD61E",
"Z.	c #F1DA3B",
"`.	c #F1DB3B",
" +	c #D6BE13",
".+	c #D5BC0E",
"++	c #D5BD0E",
"@+	c #E5CC16",
"#+	c #E5CC15",
"$+	c #ECD316",
"%+	c #EDD317",
"&+	c #D3BA0E",
"*+	c #CCB408",
"=+	c #CBB408",
"-+	c #F4DF46",
";+	c #EDD723",
">+	c #1B1704",
",+	c #AE9E2C",
"'+	c #AF9C22",
")+	c #D3BD1B",
"!+	c #DDC411",
"~+	c #DDC412",
"{+	c #DEC510",
"]+	c #DDC410",
"^+	c #DDC510",
"/+	c #F4DF47",
"(+	c #F5E14E",
"_+	c #F6E14E",
":+	c #F5E14C",
"<+	c #F6E04F",
"[+	c #E8D54A",
"}+	c #AF9D21",
"|+	c #AE9F27",
"1+	c #D4C020",
"2+	c #DBC211",
"3+	c #D1B90C",
"4+	c #FBE965",
"5+	c #F7E355",
"6+	c #D5C124",
"7+	c #C1B34A",
"8+	c #D0BD2A",
"9+	c #D2BD20",
"0+	c #DAC117",
"a+	c #F0DB3A",
"b+	c #F1DB39",
"c+	c #F8E456",
"d+	c #F9E75E",
"e+	c #E7D74D",
"f+	c #D1BD29",
"g+	c #C2B54C",
"h+	c #B6A51F",
"i+	c #F0D82E",
"j+	c #B8A527",
"k+	c #010102",
"l+	c #242424",
"m+	c #B6A734",
"n+	c #EBD631",
"o+	c #EBD630",
"p+	c #EDDA3C",
"q+	c #FDED6B",
"r+	c #FEEC6B",
"s+	c #FDED6A",
"t+	c #EDDA3E",
"u+	c #B7A735",
"v+	c #5A541A",
"w+	c #ECD319",
"x+	c #5E5816",
"y+	c #5A551B",
"z+	c #5D5915",
"A+	c #000100",
"B+	c #6F6A3B",
"C+	c #71693B",
"D+	c #70693B",
"E+	c #71693A",
"F+	c #70693A",
"G+	c #71683B",
"H+	c #6E693A",
"I+	c #6A6A6A",
"                                                                                                    ",
"                                                                                                    ",
"                                                                                                    ",
"                                                                                                    ",
"                                                                                                    ",
"                                                                                                    ",
"                                                                                                    ",
"                                      . . . . . . . . . . . . +                                     ",
"                                      @ @ @ @ @ @ @ @ @ @ @ @ .                                     ",
"                                      # $ % % % % % % % % % % &                                     ",
"                              @ @ @ * = - - - - - - - - - - - ; > @ @ @                             ",
"                              , , , ' ) ! ! ! ! ! ! ! ! ! ! ! ~ { , , ,                             ",
"                          ] ^ / / / ( _ : : : : : : : : : : : : < / / / [ }                         ",
"                          . | 1 1 1 2 _ : : : : : : : : : : : : 3 4 4 4 5 6                         ",
"                    7 8 9 0 a b b b c d e e e e e e e e e e f g h i i i j 0 k l m                   ",
"                    . . n 4 o : : : p 1 4 1 1 1 1 1 1 1 1 1 1 1 q r r r s t u v .                   ",
"                    w x y z A B B B C 1 D E F F F F F G F E H I J K K K L M N O P                   ",
"                Q R S 1 T : U 1 1 1 - I V W X X X X X X X Y ; I 4 1 1 1 Z `  .1 ..+.@               ",
"                Q @.#.1 $.: %.1 1 1 &.*.=.-.;.>.>.>.>.>.>.,.'.).!.1 1 1 Z ~. .1 ..+.]               ",
"                Q @.#.1 $.: %.1 1 1 {.].^./.1 1 1 1 1 1 1 (._.: :.1 1 1 Z ~. .- ..+.]               ",
"                <.[.}.|.1.2.3.1 1 1 {.].^./.1 1 1 1 1 1 1 (._.: :.1 1 1 4.5.6.J 7.8.9.              ",
"          0.@ a.b.c.: d.e.1 1 1 1 1 {.].^./.1 1 1 1 1 1 1 (._.: :.1 1 1 - 1 f.g.h.i.t j.} k.        ",
"          l.@ m.n.H o.: p.1 1 1 1 1 {.].^./.1 1 1 1 1 1 1 (._.: :.1 1 1 1 1 q.].r.s.- t.] k.        ",
"          l.@ u.t H o.: p.1 1 1 1 1 {.].^./.1 1 1 1 1 1 1 (._.: :.1 1 1 1 1 q.` h.v.1 t.] k.        ",
"          l.@ u.t H o.: p.1 1 1 1 1 {.].^./.1 1 1 1 1 1 1 (._.: :.1 1 1 1 1 q.` h.v.1 t.] k.        ",
"          l.@ u.t H o.: p.1 1 1 1 1 {.].^./.1 1 1 1 1 1 1 (._.: :.1 1 1 1 1 q.` h.v.1 t.] k.        ",
"          l.@ u.t H o.: p.1 1 1 1 1 {.].^./.1 1 1 1 1 1 1 (._.: :.1 1 1 1 1 q.` h.v.1 t.] k.        ",
"          l.@ u.t H o.: p.1 1 1 1 1 {.].^./.1 1 1 1 1 1 1 (._.: :.1 1 1 1 1 q.` h.v.1 t.] k.        ",
"          l.@ u.t H o.: p.1 1 1 1 1 {.].^./.1 1 1 1 1 1 1 (._.: :.1 1 1 1 1 q.` h.v.1 t.] k.        ",
"          l.@ u.t H o.: p.1 1 1 1 1 {.].^./.1 1 1 1 1 1 1 (._.: :.1 1 1 1 1 q.` h.v.1 t.] k.        ",
"          l.@ u.t H o.: p.1 1 1 1 1 {.].^./.1 1 1 1 1 1 1 (._.: :.1 1 1 1 1 q.` h.v.1 t.] k.        ",
"          l.@ u.t H o.: p.1 1 1 1 1 {.].^./.1 1 1 1 1 1 1 (._.: :.1 1 1 1 1 q.` h.v.1 t.] k.        ",
"          l.@ u.t H o.: e.1 1 1 1 1 {.].^./.1 1 1 1 1 1 1 (._.: :.1 1 1 1 1 q.` h.v.1 t.] k.        ",
"          0.Q w.x.y.z.o.A.4 4 1 1 1 {.].^./.1 1 1 1 1 1 1 (._.: :.1 1 1 ; / B.].C.D.E.F.} k.        ",
"                G.H.I.H J.K.L.1 1 1 {.].^./.1 1 1 1 1 1 1 (._.: :.1 1 1 M.N.O.P.Q.R.S.              ",
"                Q @.T.; $.: %.1 1 1 U.g.^.V.I I I I I I 1 (.W.: :.1 1 1 Z ` X.1 ..+.@               ",
"                Q @.#.1 $.: %.1 1 1 Y.Z.`. +.+.+++.+.+.+.+.+@+#+$+1 1 1 Z ~. .1 ..+.]               ",
"                Q R #.%+&+: %.- - - 1 1 4 *+: : : : : : : =+%+1 - 1 1 1 -+~. .t ;+>+@               ",
"                    ,+'+)+!+~+~+~+~+%.1 1 {+]+]+]+]+]+]+]+^+1 1 /+(+(+_+:+<+[+}+|+                  ",
"                    . @ 1+I 2+: : : 3+4 1 1 1 1 1 1 1 1 1 1 1 I 4+].` ` 5+I 6+} .                   ",
"                        7+8+9+.+.+.+0+a+b+b+b+b+b+b+b+b+b+b+b+b+c+d+d+d+e+f+g+                      ",
"                          . h+1 1 1 {.~.~.~.~.~.~.~.~.~.~.~.~.^.i+- - 1 j+k+                        ",
"                          l+m+n+n+o+p+q+r+r+r+r+r+r+r+r+r+r+r+s+t+o+o+o+u+l+                        ",
"                              Q Q Q v+= 1 1 1 1 1 1 1 1 1 1 1 w+x+Q Q Q                             ",
"                              @ @ @ y+4 1 1 1 1 1 1 1 1 1 1 1 %+z+A+@ @                             ",
"                                      B+C+D+C+E+E+F+F+E+C+G+G+H+                                    ",
"                                      A+} ] ] ] ] ] } ] ] ] ] k+                                    ",
"                                      I+I+I+I+I+I+I+I+I+I+I+I+I+                                    ",
"                                                                                                    ",
"                                                                                                    "};
