/* XPM */
static char * C:\Users\Utilisateur\Desktop\sprites\item_xpm[] = {
"10 10 6 1",
" 	c None",
".	c #BB8C21",
"+	c #E5AF31",
"@	c #FFD36E",
"#	c #FCC953",
"$	c #CA9722",
"   ....   ",
"  .++++.  ",
" .++@#++. ",
".++@$$#++.",
".+@$++$#+.",
".+#$++$#+.",
".++#$$#++.",
" .++##++. ",
"  .++++.  ",
"   ....   "};
