/* XPM */
static char * C:\Users\Utilisateur\Desktop\sprites\knight_run_1_right_xpm[] = {
"31 45 19 1",
" 	c None",
".	c #6C767A",
"+	c #9FBBBA",
"@	c #33383A",
"#	c #121515",
"$	c #F1F2CB",
"%	c #071213",
"&	c #DEAA87",
"*	c #86593B",
"=	c #171B1B",
"-	c #9B0C2E",
";	c #0D0F0F",
">	c #612D3F",
",	c #EFEFCB",
"'	c #B0B08F",
")	c #722E15",
"!	c #3A1A13",
"~	c #566165",
"{	c #202728",
"                    ..+        ",
"                    @@.+@@+    ",
"                    @@...@+@+  ",
"                     #@..@.@.  ",
"                     ##@.+.@.  ",
"                    #@@.++$+   ",
"                   ###.@#+     ",
"                   ##@@##.     ",
"                  ####@###     ",
"          ...@..+..##@.@##     ",
"         ....@...+@.@##...     ",
"       .@+..@....+@@.@@##      ",
"      ..@+..@....+##.+.@@      ",
"      ...@+.@...+###.+$$@$     ",
"   %%@+..@+##+++@@@.+++$@$     ",
"   %&&@+.#   #####@.+++$@+   **",
"    &&%%#    ######.++$@+=  ***",
"--  &%--     ###@@##.+@+=;=;***",
" >---%-,     #####@@@@+=;==;** ",
"  >>>-'>>     #@@@@@.. ;;=;=   ",
"      >',     ####@@@@  ==     ",
"       ',,    ####@@..)        ",
"        ',   !)#@@@@@@)!       ",
"        ',,  !!)))))))!!       ",
"         ',  !!!!!!!!!))       ",
"         ',, !)!!)))))))       ",
"          ',!!!))))))))))      ",
"          ',,!))))))))))))     ",
"           ',!))))))))))))     ",
"           ',,!)))))))))))))   ",
"           !',!)))))))!)))))   ",
"            ',,))))))!!))))~   ",
"        ==;=;',)))))!!!))))~   ",
"     ;;;==;==!!)))!!!  )~~~~   ",
"   ;;;;===;===== !!     ~~~+   ",
"   ;;;;==;=====         ~~~+   ",
"   ;;                   ~~~{   ",
"                        {{{+   ",
"                         ~~+   ",
"                         ~~~+  ",
"                         ~~~{  ",
"                          {{{  ",
"                           {{  ",
"                           {{~~",
"                            {{{"};
