/* XPM */
static char * C:\Users\Utilisateur\Desktop\sprites\knight_run_4_left_xpm[] = {
"32 46 19 1",
" 	c None",
".	c #9FBBBA",
"+	c #6C767A",
"@	c #33383A",
"#	c #F1F2CB",
"$	c #121515",
"%	c #DEAA87",
"&	c #071213",
"*	c #0D0F0F",
"=	c #171B1B",
"-	c #9B0C2E",
";	c #86593B",
">	c #EFEFCB",
",	c #612D3F",
"'	c #B0B08F",
")	c #722E15",
"!	c #3A1A13",
"~	c #202728",
"{	c #566165",
"       ..+                      ",
" . .@@.++@                      ",
"  .@#++++@                      ",
".@@+@+++                        ",
"++@+.+@$$                       ",
"@++.#.+@@$                      ",
"  .$.$@+$$                      ",
"   $+$$@@$$                     ",
"   $$$$@$$$                     ",
"    $$$+@@$++                   ",
"    +++$$@+@$$.+@+++            ",
"     $$@@+@@$.++@++++           ",
"     @@+.+$$.++++@++.@+         ",
"    #@##.+$$.++++@++.@++        ",
"    .@#...+@@.++@++.@+++        ",
"    .@....+@$$..$$$$++.@%&&     ",
"    *.@....$$@$$$   $+@%%%&     ",
"   ===.@..$$@$$$$    $%&&%      ",
"  **===.@@@@$$@$$      --&      ",
" ;;;*=  ++@$@@$$$      >-&---   ",
" ;;;*   @@@@$$$$      ,,'-,,,-- ",
"  ;;    +.+$$@$$      >',    ,,,",
"       )@@@@@$$)!    >>'        ",
"       !)))))))!!!   >'         ",
"       )!!!!!!!!!!! >>'         ",
"      )))))))!!)!!! >'          ",
"      )))))))))!!!!>>'          ",
"      ))))))))))!!!>'           ",
"     )))))))))))!!>>'           ",
"     ))))))))))!!!>'            ",
"    ))))))))))))!>>'            ",
"    )))!)))))))!!>'             ",
"    ))!!)))))!!!>>'             ",
"     !!!!!))))!!>'              ",
"       !!@!))!!>>'~~            ",
"        =~{{{{~>'{~~~~          ",
"         =={{~{{{~~~~~          ",
"          ==***     ~~          ",
"           *===                 ",
"            ===                 ",
"             ===                ",
"              ==                ",
"               **               ",
"              ****              ",
"              ****              ",
"             *****              "};
