/* XPM */
static char * C:\Users\Utilisateur\Desktop\sprites\ladder_xpm[] = {
"43 43 32 1",
" 	c None",
".	c #A16909",
"+	c #B78A2E",
"@	c #A37826",
"#	c #AC9653",
"$	c #B8830F",
"%	c #6C737E",
"&	c #7F7F80",
"*	c #626262",
"=	c #D5AA55",
"-	c #E8CB59",
";	c #EFDA7E",
">	c #E1BC87",
",	c #79808C",
"'	c #727273",
")	c #575758",
"!	c #F1DF9B",
"~	c #F4E7B6",
"{	c #C98C1F",
"]	c #8D611E",
"^	c #787979",
"/	c #67686D",
"(	c #868889",
"_	c #B67317",
":	c #FFFFFF",
"<	c #E6E6E6",
"[	c #F7FAFB",
"}	c #EAEBEC",
"|	c #CB9F28",
"1	c #E0B936",
"2	c #866B4D",
"3	c #EEF1F8",
".++@##############################@+@$%&&&*",
".++@==----;-;;;;;;;;;;;;;;;;;;;;;;+@+$%&&&*",
".+@@====>->->-;>;;>;;;>;;>;;>;;--;+@+$%&&&*",
".++@==------;-;->-;->;;;;;;;;->;-;+@@$,''')",
".+@@-->;>;;>;!;!;!!!;!;;!;;!;!;;;!+@+$,''')",
".@++!!!~!~!~~!~!~~!~~~~~~~~~~~~~~~#$@$,''')",
".@@.$$+$$$+$$$$$$$$$$$$$$$$$$$$$${@++$,''')",
".@@@]]@]]]]]]]]]]]]@]]@]]@]@]]]]]]@+@$,''')",
".@@@,%%%^//%/%/%/%//////,%%^%^%^%,@@@$,''')",
".@@@,&&&&^'''''''''^%^%'&&&&(&&(&,@@@$,''')",
".@@@,&&&&'''''''''''''''&&&&&&&&&,@@+_,''')",
".@@@,&&&&'''''''''''''''&&&&&&&&&,@@@$,''')",
".@@+,&&&&'''''''''''''''&&&&&&&&&,@@+$,''')",
".@@@,&&&^*))))))))))))))*********/@@@$,''')",
".@@+,&&&/:::::::::::::::::::::::::]@+_,''')",
".@@@,&&&*:<<<<<<<<<<<<<<::::::::::]@+_,''')",
"]@+@,&&&*:<<<<<<<<<<<<<<::::::::::]@+_,''')",
".@@@,&&&*:<<<<<<<<<<<<<<::::::::::]$+_,''')",
".@$@%'''):::::::::::::::<<<<<<<<<[]+@_%&&&*",
".@$@%'''):::::::::::::::<<<<<<<<<[]++_%&&&*",
".@+@%'''):::::::::::::::<}<}<}<}<[]+@_%&&&*",
".@@@%'''*:::::::::::::::}}}}<}<}}:]@+_%&&&*",
".@+@+|1111|||1=1=1====1=1=1=1=1=11@@+_%&&&*",
".@@@+||=====-=-=-=-----=-----=-==-@@@_%&&&*",
".@@@++====--=---=--=-==-===-=---=-+@+_%&&&*",
".@@@||1==1======-===-=-=--=-====1=@@@_%&&&*",
".@@@>!!!!!!!!!!!!!!!!!!!!!!!!!!!!!+@+_%&&&*",
".@@@==============================@@@_%&&&*",
".+@].....]........................@@+_%&&&*",
".+@@/////'''%'%'''''''''//////////@@+_%&&&*",
".+@@%''''&&&&&&&&(&,&&(&'''''''''%@++$%&&&*",
".+@@%''''&&&&&&&&&&&&&&&'''''''''%@++$%&&&*",
".@$@%''''&&&&&&&&&&&&&&&'''''''''%@++$%&&&*",
".++@,&&&^*))))))))))))))*********/@+@$,''')",
".+$@,&&&/:::::::::::::::::::::::::]+@$,''')",
".++@,&&&*:<<<<<<<<<<<<<<::::::::::]+@$,''')",
".+$2,&&&*:<<<<<<<<<<<<<<::::::::::]+@$,''')",
".++@,&&&*:<<<<<<<<<<<<<<::::::::::]+@$,''')",
".+$@,&&&*:<<<<<<<<<<<<<<::::::::::]+@$,''')",
".++@,&&&*:<<<<<<<<<<<<<<::::::::::]+@$,''')",
".+$2,&&&*:<<<<<<<<<<<<<<::::::::::]+@$,''')",
".++@,&&&*:<<<<<<<<<<<<<<::::::::::]+@$,''')",
".@+@,,,&/:3[333333333333::::::::::]+@$,''')"};
