/* XPM */
static char * C:\Users\Utilisateur\Desktop\ladder_xpm[] = {
"43 43 19 1",
" 	c None",
".	c #A16909",
"+	c #B78A2E",
"@	c #A37826",
"#	c #AC9653",
"$	c #B8830F",
"%	c #D5AA55",
"&	c #E8CB59",
"*	c #EFDA7E",
"=	c #E1BC87",
"-	c #F1DF9B",
";	c #F4E7B6",
">	c #C98C1F",
",	c #8D611E",
"'	c #B67317",
")	c #CB9F28",
"!	c #E0B936",
"~	c #79808C",
"{	c #866B4D",
".++@##############################@+@$     ",
".++@%%&&&&*&**********************+@+$     ",
".+@@%%%%=&=&=&*=**=***=**=**=**&&*+@+$     ",
".++@%%&&&&&&*&*&=&*&=********&=*&*+@@$     ",
".+@@&&=*=**=*-*-*---*-**-**-*-***-+@+$     ",
".@++---;-;-;;-;-;;-;;;;;;;;;;;;;;;#$@$     ",
".@@.$$+$$$+$$$$$$$$$$$$$$$$$$$$$$>@++$     ",
".@@@,,@,,,,,,,,,,,,@,,@,,@,@,,,,,,@+@$     ",
".@@@                              @@@$     ",
".@@@                              @@@$     ",
".@@@                              @@+'     ",
".@@@                              @@@$     ",
".@@+                              @@+$     ",
".@@@                              @@@$     ",
".@@+                              ,@+'     ",
".@@@                              ,@+'     ",
",@+@                              ,@+'     ",
".@@@                              ,$+'     ",
".@$@                              ,+@'     ",
".@$@                              ,++'     ",
".@+@                              ,+@'     ",
".@@@                              ,@+'     ",
".@+@+)!!!!)))!%!%!%%%%!%!%!%!%!%!!@@+'     ",
".@@@+))%%%%%&%&%&%&&&&&%&&&&&%&%%&@@@'     ",
".@@@++%%%%&&%&&&%&&%&%%&%%%&%&&&%&+@+'     ",
".@@@))!%%!%%%%%%&%%%&%&%&&%&%%%%!%@@@'     ",
".@@@=-----------------------------+@+'     ",
".@@@%%%%%%%%%%%%%%%%%%%%%%%%%%%%%%@@@'     ",
".+@,.....,........................@@+'     ",
".+@@                              @@+'     ",
".+@@                              @++$     ",
".+@@                              @++$     ",
".@$@                              @++$     ",
".++@                              @+@$     ",
".+$@                              ,+@$~    ",
".++@                              ,+@$     ",
".+${                              ,+@$     ",
".++@                              ,+@$     ",
".+$@                              ,+@$     ",
".++@                              ,+@$     ",
".+${                              ,+@$     ",
".++@                              ,+@$     ",
".@+@                              ,+@$     "};
