/* XPM */
static char *dummy[]={
"50 50 67 2",
"Qt c #1e1d1c",
".2 c #1f1d1c",
".4 c #1f1e1c",
".y c #1f1e1d",
".s c #201f1e",
".5 c #211f1e",
".H c #21201f",
".l c #222120",
".L c #232221",
".f c #242221",
".A c #242322",
"#. c #252422",
".J c #252423",
".V c #262423",
".z c #262524",
".Z c #272524",
".0 c #272624",
".X c #272625",
".6 c #282625",
".W c #282726",
"## c #292826",
".D c #292827",
".E c #2a2827",
".p c #2a2928",
".# c #2b2928",
".o c #2b2a29",
".P c #2c2a29",
".3 c #2c2b29",
".w c #2c2b2a",
".G c #2d2b2a",
".M c #2d2c2a",
".T c #2d2c2b",
".t c #2e2c2b",
"#a c #2e2d2b",
".C c #2e2d2c",
".v c #2f2d2c",
".F c #2f2e2d",
".u c #302e2d",
".B c #302f2d",
".x c #302f2e",
".g c #312f2e",
".1 c #31302e",
".K c #31302f",
".m c #32302f",
".I c #32312f",
".Y c #323130",
".a c #333130",
".r c #343231",
".O c #343331",
".8 c #343332",
".b c #353332",
".S c #353432",
".9 c #353433",
".e c #363433",
".h c #363533",
".q c #373534",
".c c #383635",
".n c #383735",
".U c #383736",
".k c #393736",
".N c #393836",
".j c #3a3837",
".d c #3a3937",
".7 c #3a3938",
".Q c #3b3938",
".R c #3b3a38",
".i c #3c3b39",
"QtQtQtQtQtQtQtQtQtQtQtQt.#.a.b.c.c.c.c.c.d.e.a.fQtQt.g.a.h.i.j.c.c.c.c.c.c.c.c.c.c.c.c.c.c.c.k.lQtQt",
"QtQtQtQtQtQtQtQtQtQtQtQt.m.a.a.a.a.a.a.a.k.n.a.oQt.p.a.e.i.i.q.a.a.a.a.a.a.a.a.a.a.a.a.a.a.a.r.n.sQt",
"QtQtQtQtQtQtQtQtQtQtQtQt.a.a.a.a.a.a.a.a.r.b.a.tQt.m.a.e.b.b.r.a.a.a.a.a.a.u.u.a.u.v.a.a.a.a.a.b.tQt",
"QtQtQtQtQtQtQtQtQtQtQtQt.a.a.a.a.a.a.a.a.a.a.u.wQt.a.r.b.a.a.a.a.a.a.a.a.a.u.v.a.u.v.a.a.a.a.a.a.x.l",
"QtQtQtQtQtQtQtQtQtQtQt.y.v.u.a.a.a.a.a.a.a.a.z.AQt.B.i.b.a.a.a.a.a.a.a.a.a.a.a.a.a.a.a.a.a.a.a.a.x.z",
"QtQtQtQtQtQtQtQtQtQtQt.y.u.u.a.a.a.a.a.a.a.a.z.AQt.B.i.b.a.a.a.a.m.m.a.a.a.a.a.a.a.a.a.a.a.a.a.a.x.z",
"QtQtQtQtQtQtQtQtQtQtQtQt.a.a.a.a.a.a.a.a.a.a.C.AQt.B.i.b.a.a.a.a.u.u.a.a.a.a.a.a.a.a.a.a.a.a.a.a.x.z",
"QtQtQtQtQtQtQtQtQtQtQt.y.a.a.a.a.a.a.a.D.D.m.a.EQt.m.b.F.a.a.a.a.a.m.a.a.a.a.a.a.a.a.a.a.a.G.D.D.D.z",
"QtQtQtQtQtQtQtQtQtQtQt.l.a.a.a.a.a.a.a.z.o.a.a.HQt.I.a.g.g.g.a.a.a.a.a.a.a.a.a.a.a.a.a.a.a.p.z.z.z.y",
"QtQtQtQtQtQtQtQtQtQtQt.s.a.a.m.z.z.z.z.z.m.a.tQtQt.J.K.a.a.a.a.u.o.z.z.z.z.z.z.z.z.z.z.z.z.z.z.z.lQt",
"QtQtQtQtQtQtQtQtQtQtQtQt.L.G.z.H.H.l.l.l.L.EQtQtQt.s.l.J.z.J.l.l.l.l.l.l.l.l.l.l.l.l.l.l.l.l.l.lQtQt",
"QtQtQtQtQtQtQtQtQtQtQtQtQtQtQtQtQtQtQtQtQtQtQtQtQtQtQtQtQtQtQtQtQtQtQtQtQtQtQtQt.y.LQtQtQtQtQtQtQtQt",
"QtQtQtQtQtQtQtQtQtQtQtQtQt.u.a.a.M.N.N.N.N.N.N.N.N.N.N.N.N.N.N.N.N.N.O.m.P.yQt.p.a.a.e.N.N.N.N.n.yQt",
"QtQtQtQtQtQtQtQtQtQtQtQt.m.a.a.O.i.Q.d.d.d.d.d.d.d.d.d.d.d.d.d.d.d.R.S.a.a.#.J.a.a.O.i.R.d.d.d.d.S.s",
"QtQtQtQtQtQtQtQtQtQtQtQt.a.a.j.i.i.e.a.a.a.a.a.a.a.a.a.a.a.a.a.a.a.q.i.q.a.m.p.a.r.i.i.k.a.a.a.a.a.w",
"QtQtQtQtQtQtQtQtQtQtQtQt.a.a.k.k.k.r.a.a.a.a.a.a.a.m.g.a.a.a.a.a.a.b.k.a.T.J.L.a.b.k.k.h.a.a.a.a.a.a",
"QtQtQtQtQtQtQtQtQtQtQtQt.N.d.a.a.a.a.a.a.a.a.a.a.a.g.t.m.a.a.a.a.a.a.a.t.z.y.L.i.e.a.a.a.a.a.a.a.a.a",
"QtQtQtQtQtQtQtQtQtQtQtQt.N.d.a.a.a.a.a.v.g.a.a.a.a.m.m.a.a.v.v.v.a.a.a.a.m.G.L.i.e.a.a.a.a.u.u.a.a.a",
"QtQtQtQtQtQtQtQtQtQtQtQt.N.d.a.a.a.a.a.t.g.a.a.a.a.a.a.a.a.t.t.t.a.a.a.a.a.T.L.i.e.a.a.a.a.u.v.m.a.a",
"QtQtQtQtQtQtQtQtQtQtQtQt.N.d.a.a.a.a.a.a.a.a.a.a.a.a.a.a.a.a.a.a.a.a.a.a.a.#.L.i.e.a.a.a.a.a.a.a.a.a",
"QtQtQtQtQtQtQtQtQtQtQtQt.N.U.w.o.o.g.a.a.a.a.a.a.a.a.a.a.a.a.a.a.o.o.G.a.a.V.a.k.K.o.o.v.a.a.a.a.a.a",
"QtQtQtQtQtQtQtQtQtQtQtQt.g.r.p.z.z.g.a.a.a.a.a.a.a.a.a.a.a.a.a.a.z.z.g.a.g.H.a.a.m.z.z.w.a.a.a.a.a.a",
"QtQtQtQtQtQtQtQtQtQtQtQt.G.a.a.g.z.z.z.z.z.z.z.z.z.z.z.z.z.z.z.z.z.W.a.a.sQt.X.m.a.t.z.z.z.z.z.z.z.z",
"QtQtQtQtQtQtQtQtQtQtQtQtQt.C.Y.T.A.A.A.A.A.A.A.A.A.A.A.A.A.A.A.A.A.A.C.JQtQtQtQt.s.y.A.A.A.A.A.A.A.A",
"QtQtQtQtQtQtQtQtQtQtQtQtQtQtQtQtQtQtQtQtQtQtQtQtQtQtQtQtQtQtQtQtQtQtQtQtQtQtQtQtQtQtQtQtQtQtQtQtQtQt",
"QtQtQtQtQtQtQtQtQtQtQtQtQt.T.u.B.B.B.B.B.B.B.L.HQtQt.Z.P.M.B.B.B.B.B.J.l.M.B.B.B.B.B.B.B.B.B.B.0QtQt",
"QtQtQtQtQtQtQtQtQtQtQtQt.m.a.a.n.i.i.i.i.i.i.X.AQt.p.a.a.e.i.i.i.i.i.i.i.i.i.i.i.i.i.i.i.i.i.i.i.lQt",
"QtQtQtQtQtQtQtQtQtQtQtQt.a.a.r.b.b.b.b.b.N.i.1.wQt.a.a.r.i.i.c.b.b.b.b.b.b.b.b.b.b.b.b.b.b.b.e.R.d.y",
"QtQtQtQtQtQtQtQtQtQtQtQt.m.a.a.a.a.a.a.a.k.i.a.TQt.a.a.i.i.i.q.a.a.a.a.a.a.a.a.a.a.a.a.a.a.a.r.R.d.z",
"QtQtQtQtQtQtQtQtQtQtQtQt.a.a.a.g.t.t.t.a.a.a.z.AQt.m.n.b.a.a.a.a.a.a.a.a.a.v.v.a.a.a.a.a.a.a.a.a.x.l",
".2QtQtQtQtQtQtQtQtQtQtQt.a.a.a.m.g.g.g.a.a.a.z.AQt.B.i.b.a.a.a.a.a.a.a.a.a.g.g.a.a.a.a.m.u.m.a.a.x.z",
".yQtQtQtQtQtQtQtQtQtQtQt.a.a.a.a.a.a.a.a.a.a.z.AQt.B.i.b.a.a.a.a.a.a.a.a.a.a.a.a.a.a.a.g.t.m.a.a.x.z",
".yQtQtQtQtQtQtQtQtQtQtQt.v.a.a.a.a.a.a.a.a.a.z.AQt.B.i.b.a.a.a.a.a.g.t.g.a.a.a.a.u.t.a.a.a.a.a.a.x.z",
".yQtQtQtQtQtQtQtQtQtQtQt.t.a.a.m.g.a.a.v.v.v.z.sQt.B.i.K.v.v.g.a.a.m.u.m.a.a.a.a.g.u.a.a.a.u.v.v.G.H",
".yQtQtQtQtQtQtQtQtQtQtQt.P.a.a.g.t.m.a.z.z.z.zQtQt.3.i.o.z.z.v.a.a.a.a.a.a.a.a.a.a.a.a.a.a.p.z.z.JQt",
".4QtQtQtQtQtQtQtQtQtQt.y.H.a.g.#.D.o.P.z.z.z.LQtQt.l.x.W.z.z.p.P.P.P.P.P.P.P.P.P.P.P.P.P.P.W.z.z.sQt",
"QtQtQtQtQtQtQtQtQtQtQt.y.5.a.a.u.z.z.z.z.z.J.yQtQtQtQtQt.L.z.z.z.z.z.z.z.z.z.z.z.z.z.z.z.z.z.zQtQtQt",
"QtQtQtQtQtQtQtQtQtQtQtQt.y.z.g.Z.y.y.y.y.yQtQtQtQtQtQtQt.y.y.y.y.y.y.y.y.y.y.y.y.y.y.y.y.y.y.yQtQtQt",
"QtQtQtQtQtQtQtQtQtQtQtQtQt.s.lQt.H.L.L.L.lQtQt.l.L.L.L.L.L.L.L.L.L.L.L.H.yQtQt.z.l.L.L.L.L.L.L.L.L.L",
"QtQtQtQtQtQtQtQtQtQtQtQt.W.a.x.w.i.i.i.i.i.D.d.i.i.i.i.i.i.i.i.i.i.i.i.x.z.y.v.a.b.i.i.i.i.i.i.i.i.i",
"QtQtQtQtQtQtQtQtQtQtQtQt.g.m.R.i.i.c.e.e.e.e.e.e.e.e.e.e.e.e.e.e.e.n.i.b.v.6.a.a.7.i.i.j.e.e.e.e.e.e",
"QtQtQtQtQtQtQtQtQtQtQtQt.a.O.i.i.i.b.a.a.a.a.a.a.a.a.a.a.a.a.a.a.a.q.i.q.m.D.a.r.i.i.i.k.a.a.a.a.a.a",
"QtQt.yQtQtQtQtQtQtQtQtQt.r.r.a.a.a.v.t.t.g.a.a.a.a.a.a.a.a.a.u.t.a.a.a.P.z.l.a.r.e.a.a.a.a.a.a.a.m.t",
"QtQtQtQtQtQtQtQtQtQtQtQt.n.k.a.a.a.g.u.u.m.a.a.a.a.m.g.a.a.a.g.u.a.a.a.P.z.y.a.b.e.a.a.m.g.m.a.a.m.u",
"Qt.yQtQtQtQtQtQtQtQtQtQt.N.d.a.a.a.a.a.a.a.a.a.a.a.g.t.m.a.a.a.a.a.a.a.P.z.y.a.b.e.a.a.g.t.m.a.a.a.a",
"QtQtQtQtQtQtQtQtQtQtQtQt.N.d.a.a.a.a.a.a.g.u.a.a.a.m.m.a.a.a.a.a.a.a.a.P.z.s.a.b.e.a.a.m.m.a.a.a.a.v",
"QtQtQtQtQtQtQtQtQtQtQtQt.8.j.m.m.m.a.a.a.g.v.a.a.a.a.a.a.a.a.a.a.m.m.a.a.l.y.a.b.9.m.m.m.a.a.a.a.a.H",
"QtQtQtQtQtQtQtQtQtQtQtQt#..n##.W.W.g.a.a.a.m.a.a.a.a.a.a.a.a.a.a.g.u.a.m.sQt.g.S.F.W.W.G.a.a.a.a.WQt",
"QtQtQtQtQtQtQt.yQtQtQtQtQt.X.X.z.z.v.x.x.x.x.x.x.x.x.x.x.x.x.x.K.a.a.m.6QtQtQt#a.M.z.z.#.x.x.x.DQtQt",
"QtQtQtQtQtQtQt.sQtQtQtQtQtQt.l.z.z.z.z.z.z.z.z.z.z.z.z.z.z.z.z.z.X.W.LQtQt.yQtQt.y.s.s.s.z.z.LQtQtQt"};
