/* XPM */
static char *dummy[]={
"50 50 56 1",
". c #1e1d1c",
"1 c #1f1e1c",
"z c #1f1e1d",
"E c #201f1e",
"# c #21201f",
"D c #222120",
"O c #232221",
"Z c #242221",
"x c #242322",
"G c #252423",
"Y c #262423",
"u c #262524",
"V c #272625",
"S c #282726",
"f c #292827",
"t c #2a2827",
"C c #2a2928",
"0 c #2b2928",
"B c #2b2a29",
"m c #2c2a29",
"L c #2c2b2a",
"l c #2d2b2a",
"A c #2d2c2b",
"e c #2e2c2b",
"X c #2e2d2b",
"F c #2e2d2c",
"r c #2f2d2c",
"W c #2f2e2c",
"v c #302e2d",
"o c #302f2d",
"y c #302f2e",
"P c #312f2e",
"I c #31302e",
"T c #31302f",
"w c #32302f",
"g c #32312f",
"n c #333130",
"p c #343231",
"H c #343331",
"s c #353332",
"N c #363433",
"Q c #363533",
"a c #373534",
"M c #373635",
"b c #383635",
"U c #383735",
"R c #383736",
"j c #393736",
"k c #393836",
"i c #3a3837",
"c c #3a3937",
"h c #3a3938",
"K c #3b3938",
"q c #3b3a38",
"J c #3b3a39",
"d c #3c3b39",
"............#abbbbbbcdef.fghddibbbbbbbbbbbbbbbjdkl",
"............mnnnnnnnjdne.oddddannnnnnnnnnnnnnnpqcn",
"............rnnnnnnnpstu.odasspnnnnnnvvnvrnnnnnsnf",
"............rwnnnnnnnnux.odsnnnnnnnnnvrnvrnnnnnnyu",
"............evnnnnnnnnux.odsnnnnnnnnnnnnnnnnnnnnyu",
"............vvnnnnnnnnux.odsnnnnwwnnnnnnnnnnnnnnyu",
"............nnnnnnnnnnux.odsnnnnevnnnnnnnnnnnnnnyu",
"...........znnnnnnnfffux.odAffvnwwnnnnnnnnnnnlfffu",
"...........znnnnnnnuuuux.odBuurnnnnnnnnnnnnnnCuuuu",
"...........zuuuuuuuuuuux.Duuuuuuuuuuuuuuuuuuuuuuuu",
"...........zDDDDDDDDDDD#.EDDDDDDDDDDDDDDDDDDDDDDDD",
"..................................................",
"............xBkkkkkkkkkkkkkkkkkkkkkFGzzGHkkkkkkkkk",
"............BIJddKcccccccccccccccqdgfEELMddqcccccc",
"............kJdddNnnnnnnnnnnnnnnnadawDOqdddjnnnnnn",
"............kqjjjpnnnnnnnwPnnnnnnsjnA#OdijjQnnnnnn",
"............kcnnnnnnnnnnnPewnnnnnnnmuzOdNnnnnnnnnn",
"............kcnnnnnrPnnnnwwnnrrrnnnmuzOdNnnnnvvnnn",
"............kcnnnnnePnnnnnnnneeennnmuzOdNnnnnvrwnn",
"............kcnnnnnnnnnnnnnnnnnnnnnmuzOdNnnnnnnnnn",
"............kRLBBPnnnnnnnnnnnnnnBBBSuzOdTBBrnnnnnn",
"............kUVuuPnnnnnnnnnnnnnnuuuuuzOdWuuLnnnnnn",
"............OVuuuuuuuuuuuuuuuuuuuuuuuzzVuuuuuuuuuu",
"............zxxxxxxxxxxxxxxxxxxxxxxxOzzxxxxxxxxxxx",
"..................................................",
"............ooooooooooO#.EDXooooooooooooooooooooAD",
"...........zddddddddddVx.DukddddddddddddddddddddUu",
"...........zsssssssskdIL.XkJddbsssssssssssssssNqcP",
"............SnnnnnnnjdnA.oddddannnnnnnnnnnnnnnpqcn",
"............YnnPeeennnux.odsnnnnnnnnnrrnnnnnnnnnyu",
"............GnnwPPPnnnux.odsnnnnnnnnnPPnnnnwvwnnyu",
"............Znnnnnnnnnux.odsnnnnnnnnnnnnnnnPewnnyu",
"............Dnnnnnnnnnux.odsnnnnnPePnnnnvennnnnnyu",
"............znnwPnnrrrux.odTrrPnnwvwnnnnPvnnnvrrlu",
".............unPewnuuuux.odBuurnnnnnnnnnnnnnnCuuuO",
"..............S0fBmuuuux.SySuuCmmmmmmmmmmmmmmSuux.",
"...............EEEEDuuu..zuuuuuuuuuuuuuuuuuuuuuuz.",
"..................................................",
"..................................................",
"...........................................1......",
"..................................................",
"..................................................",
"..................................................",
"..................................................",
"...............................................z..",
"..............................................z...",
".................................................z",
"..................................................",
"..................................................",
".................................................."};
