/* XPM */
static char *dummy[]={
"50 50 58 1",
". c #1e1d1c",
"v c #1f1e1d",
"o c #201f1e",
"K c #21201f",
"J c #222120",
"L c #232221",
"# c #242322",
"N c #252423",
"y c #262524",
"G c #272625",
"B c #282726",
"i c #292827",
"x c #2a2827",
"I c #2a2928",
"3 c #2b2928",
"H c #2b2a29",
"W c #2c2a29",
"T c #2c2b2a",
"F c #2d2b2a",
"E c #2d2c2b",
"h c #2e2c2b",
"1 c #2e2d2b",
"O c #2e2d2c",
"A c #2f2d2c",
"0 c #2f2e2c",
"Y c #2f2e2d",
"z c #302e2d",
"s c #302f2d",
"C c #302f2e",
"p c #312f2e",
"Q c #31302e",
"D c #31302f",
"q c #32302f",
"j c #32312f",
"d c #323130",
"r c #333130",
"c c #343231",
"P c #343331",
"w c #353332",
"u c #353432",
"b c #363433",
"n c #363533",
"2 c #363534",
"a c #373534",
"V c #373634",
"U c #373635",
"e c #383635",
"Z c #383735",
"X c #383736",
"m c #393736",
"M c #393836",
"l c #3a3837",
"f c #3a3937",
"k c #3a3938",
"S c #3b3938",
"t c #3b3a38",
"R c #3b3a39",
"g c #3c3b39",
".#abcdeeeeeeeeeeeeeefghi.ijkggleeeeeeeeeeeeeeemno.",
"#apqprrrrrrrrrrrrrrrmgrh.sggggarrrrrrrrrrrrrrrctuv",
"arrrrrrrrrrrrrrrrrrrcwxy.sgawwcrrrrrrzzrzArrrrrwrB",
"rrqrrrrqqrrrqqrrrrrrrry#.sgwrrrrrrrrrzArzArrrrrrCy",
"rDrrrrrzhrrrAzrrrrrrrry#.sgwrrrrrrrrrrrrrrrrrrrrCy",
"qrrrrrrpzrrrzzrrrrrrrry#.sgwrrrrqqrrrrrrrrrrrrrrCy",
"rrzrrrrrrrrrrrrrrrrrrry#.sgwrrrrhzrrrrrrrrrrrrrrCy",
"rrrrrrrrrrrrrrrrrrriiiy#.sgEiizrqqrrrrrrrrrrrFiiiy",
"GhhACrrrrrrrrrrrrrryyyy#.sgHyyArrrrrrrrrrrrrrIyyyy",
"yyyyyyyyyyyyyyyyyyyyyyy#.Jyyyyyyyyyyyyyyyyyyyyyyyy",
"ovvKL#JJJJJJJJJJJJJJJJJK.oJJJJJJJJJJJJJJJJJJJJJJJJ",
"..................................................",
"MMMMMMMMMNK.#HMMMMMMMMMMMMMMMMMMMMMONvvNPMMMMMMMMM",
"ffffffftgx#.HQRggSffffffffffffffftgjiooTUggtffffff",
"rrrrrrrlgri.MRgggbrrrrrrrrrrrrrrragaqJLtgggmrrrrrr",
"rrrrrrrVmOy.MtmmmcrrrrrrrqprrrrrrwmrEKLglmmnrrrrrr",
"rrrrrrrrryJ.MfrrrrrrrrrrrphqrrrrrrrWyvLgbrrrrrrrrr",
"rrzzrrrrryJ.MfrrrrrAprrrrqqrrAAArrrWyvLgbrrrrzzrrr",
"rrAArrrrryJ.MfrrrrrhprrrrrrrrhhhrrrWyvLgbrrrrzAqrr",
"rrrrrrrrryJ.MfrrrrrrrrrrrrrrrrrrrrrWyvLgbrrrrrrrrr",
"rrrrrpHHHyJ.MXTHHprrrrrrrrrrrrrrHHHByvLgDHHArrrrrr",
"rrrrrYyyyyJ.MZGyyprrrrrrrrrrrrrryyyyyvLg0yyTrrrrrr",
"yyyyyyyyyyJ.yGyyyyyyyyyyyyyyyyyyyyyyyvvGyyyyyyyyyy",
"##########K.L#######################Lvv###########",
"..................................................",
"isssssssssssssssssssssLK.oJ1ssssssssssssssssssssEJ",
"jgggggggggggggggggggggG#.JyMggggggggggggggggggggZy",
"kggtbwwwwwwwwwwwwwwwMgQT.1MRggewwwwwwwwwwwwwwwbtfp",
"gggfcrrrrrrrrrrrrrrrmgrE.sggggarrrrrrrrrrrrrrrctfr",
"errrrqhqrrrrrrrphhhrrry#.sgwrrrrrrrrrAArrrrrrrrrCy",
"errrrqpqrrrrrrrqppprrry#.sgwrrrrrrrrrpprrrrqzqrrCy",
"errrrrrrrrrrrrrrrrrrrry#.sgwrrrrrrrrrrrrrrrphqrrCy",
"errrrrrrrhprrrrrrrrrrry#.sgwrrrrrphprrrrzhrrrrrrCy",
"2AAYrrrrrzprrrrqprrAAAy#.sgDAAprrqzqrrrrpzrrrzAAFy",
"syyiqrrrrrrrrrrphqryyyy#.sgHyyArrrrrrrrrrrrrrIyyyy",
"oyyGHWWWWWWWWWW3iHWyyyyL.BCByyIWWWWWWWWWWWWWWByyyo",
".v#yyyyyyyyyyyyyyyyyyyJ...Lyyyyyyyyyyyyyyyyyyyyyv.",
".....vvvvvvvvvvvvvvvvv......vvvvvvvvvvvvvvv.......",
"..................................................",
"..................................................",
"....................................v.............",
"..................................................",
"..................................................",
"..................................................",
".................................................v",
"..................................................",
"..................................................",
"..........................................v.......",
".............................o...........o........",
".....v.v.v..................v...........v........."};
