/* XPM */
static char *dummy[]={
"50 50 59 1",
"m c #1e1d1c",
"r c #1f1d1c",
"s c #1f1e1d",
"3 c #201e1d",
"4 c #201f1d",
"G c #201f1e",
"2 c #211f1e",
"L c #21201f",
"I c #222120",
"J c #232221",
"C c #242322",
"K c #252423",
"q c #262423",
". c #262524",
"# c #272625",
"1 c #282725",
"a c #282726",
"l c #292827",
"b c #2a2827",
"E c #2a2928",
"c c #2b2928",
"H c #2b2a29",
"d c #2c2a29",
"X c #2c2b29",
"e c #2c2b2a",
"f c #2d2c2b",
"g c #2e2c2b",
"W c #2e2d2b",
"h c #2e2d2c",
"D c #2f2d2c",
"U c #2f2e2d",
"y c #302e2d",
"w c #302f2d",
"t c #302f2e",
"F c #312f2e",
"O c #31302e",
"0 c #31302f",
"B c #32302f",
"n c #32312f",
"u c #333130",
"z c #343231",
"A c #353332",
"R c #363433",
"Y c #363533",
"Z c #363534",
"x c #373534",
"S c #373634",
"i c #383635",
"V c #383735",
"T c #383736",
"v c #393736",
"M c #393836",
"p c #3a3837",
"j c #3a3937",
"o c #3a3938",
"Q c #3b3938",
"N c #3b3a38",
"P c #3b3a39",
"k c #3c3b39",
".##...#abcdeffggfhiijkglmlnokkpiiiiiqmmmmmmmrmmmsm",
".acftuuuuuuuuuuuuuuuvkugmwkkkkxuuuuuymmmmmmmsmssmm",
"luuuuuuuuuuuuuuuuuuuzAb.mwkxAAzuuuuuummmmmmmmmmmmm",
"cuuuuuuBBuuuBBuuuuuuuu.CmwkAuuuuuuuuummmmmmmmmmmmm",
"cBuuuuuyguuuDyuuuuuuuu.CmwkAuuuuuuuuummmmmmmmmsmmm",
"EuuuuuuFyuuuyyuuuuuuuu.CmwkAuuuuBBuuummmmmmmmmGmmm",
"luFuuuuuuuuuuuuuuuuuuu.CmwkAuuuugyuuummmmmmmmmmmmm",
"afuuuuuuuuuuuuuuuuulll.CmwkfllyuBBuuFmmmmmmmmmmmmm",
"..guuuuuuuuuuuuuuuu....CmwkH..DuuuuuGmmmmmmmsmmmmm",
".......................CmI.........Gmmmmmmmmmsmmmm",
".CJCKKKKJIIIIIIIIIIIIIILmGIIIIIIIIIsmmmmmmmmmmmmmm",
"mmmmmmmmmmmmmmmmmmmmmmmmmmmmmmmmmmmmmmmmmmmmmmmmmm",
"MMMMMMMMMKLmCHMMMMMMMMMMMMMMMMMMMMMhmmmmmmmmmmmmmm",
"jjjjjjjNkbCmHOPkkQjjjjjjjjjjjjjjjNkn.mmmmmmmmmmmmm",
"uuuuuuupkulmMPkkkRuuuuuuuuuuuuuuuxkxBmmmmmmmmmmmmm",
"uuuuuuuSvh.mMNvvvzuuuuuuuBFuuuuuuAvufmmmmmmmmmmmmm",
"uuuuuuuuu.ImMjuuuuuuuuuuuFgBuuuuuuud.mmmmmmmmmmmmm",
"uuyyuuuuu.ImMjuuuuuDFuuuuBBuuDDDuuud.mmmmmmmmmmmmm",
"uuDDuuuuu.ImMjuuuuugFuuuuuuuuggguuud.mmmmmmmmmmmmm",
"uuuuuuuuu.ImMjuuuuuuuuuuuuuuuuuuuuudKmmmmmmmmmmmmm",
"uuuuuFHHH.ImMTeHHFuuuuuuuuuuuuuuHHHaCmmmmmmmmmmmmm",
"uuuuuU....ImMV#..Fuuuuuuuuuuuuuu....Cmmmmmmmmmmmmm",
"J.........Im.#......................smmmmmmmmmmmmm",
"mCCCCCCCCCLmJCCCCCCCCCCCCCCCCCCCCCCGmmmmmmmmmmmmmm",
"mmmmmmmmmmmmmmmmmmmmmmmmmmmmmmmmmmmmmmmmmmmmmmmmmm",
"lwwwwwwwwwwwwwwwwwwwwwJLmGIWwwwwwwwwXmmmmmmmmmmmmm",
"nkkkkkkkkkkkkkkkkkkkkk#CmI.MkkkkkkkkYmmmmmmmmmmmmm",
"okkNRAAAAAAAAAAAAAAAMkOemWMPkkiAAAAAFmmmmsmmmmmmms",
"kkkjzuuuuuuuuuuuuuuuvkufmwkkkkxuuuuuymmmmmmmmmmmmm",
"iuuuuBgBuuuuuuuFggguuu.CmwkAuuuuuuuugmmmsmmmmmmmmm",
"iuuuuBFBuuuuuuuBFFFuuu.CmwkAuuuuuuuubmmmmmmmmmmmmm",
"iuuuuuuuuuuuuuuuuuuuuu.CmwkAuuuuuuuu.mmmmmmmmmmmmm",
"iuuuuuuuugFuuuuuuuuuuu.CmwkAuuuuuFgFCmmmmmmmmmmmmm",
"ZDDUuuuuuyFuuuuBFuuDDD.Cmwk0DDFuuByBsmmmmmmmmmmmmm",
"1..lBuuuuuuuuuuFgBu....CmwkH..DuuuuImmmmmmmmmmmmmm",
"mK.#HddddddddddclHd....Gm#ta..Eddd2mmmmmmmmmmmmmmm",
"mL..KCCCJCCKK.........GmmmJ.....Jsmmmmmmmmmmmmmmmm",
"mmmmmmmmmmmmmmmmmmmmmmmmmmmssmmmmmmmmmmmmmmmmmmmmm",
"mmmmmmmmmmmmmmmmmmmmmmmmmmmmmmmmmmmmmmmmmmmmmmmmmm",
"mmmmmmmmmmmmmmmmmmmmmmmmmmmmmmmmmmmmmmmmmmmmmmmmmm",
"mmmmmmmmmmmmmmmmmmmmmmmmmmmmmmmmmmmmmmmmmmmmmmmmmm",
"mmm3mmmm4mmmmmmmmmmmsmmmmmmmmmmmmmmmmmmmmmmmmmmmmm",
"mmmmmmmmmmmmmmmmsmmmmmmmmmmmmmmmmmmmmmmmmmmmmmmmmm",
"mmmmmmmmmmmmmmmmmmmmmmmmmmmmmmsmmmmmmmmmmmmmmmmmmm",
"mmmmmmmmmmmmsmmmmmmmmmmmmmmmmmmmmmmmmmmmmmmmmmmmmm",
"mmmmmmmmmmmmmmmmmmmmsmmmmmmmmmmmmmmmmmmmmmmmsmmmmm",
"mmmmmmmmsmmmmmmmmmmmmmmmmmmmmmmmmmmmmmmmmsmmmmmmmm",
"mmmmmmmmmmmmmmsmmmmsmmmmmmmmmmmmmmmmmmmmmmmmmmmmmm",
"mmmmmmmmmmmmsmmmmmmmmmmmmmmmmmmmmmmmmmmmmmmmmmmmmm",
"msmmmmmmmmmmmmmssmGmmmmmmmmmmmmmmmmmmmmsmmmmmmmmmm"};
