/* XPM */
static char * C:\Users\Utilisateur\Desktop\sprites\platform(test 50_17)_xpm[] = {
"50 15 30 1",
" 	c None",
".	c #010101",
"+	c #030201",
"@	c #050303",
"#	c #040303",
"$	c #020101",
"%	c #040302",
"&	c #060402",
"*	c #050402",
"=	c #070403",
"-	c #010100",
";	c #010000",
">	c #000000",
",	c #865F37",
"'	c #976A3E",
")	c #A77C4F",
"!	c #020201",
"~	c #986B3F",
"{	c #96693E",
"]	c #95693D",
"^	c #966A3E",
"/	c #845D36",
"(	c #855E37",
"_	c #855D36",
":	c #755230",
"<	c #865F38",
"[	c #865E37",
"}	c #875F37",
"|	c #634222",
"1	c #6E4D2D",
" .+@#$%%$$$$+&&*=%$$$$$$$$$$...-------;;>>>$$>>>> ",
">,,,,,''')))))))))))'''''',,''',,,,''',,,,,,,,,,,!",
">,,''''''''''''''~~~~'''''''''''''''''''''''''',,-",
">,''''''''''''''''''''''''''''''''''''''''''''{',>",
">,']''''''''''''''''''''''''''''''''''''''''^'''/>",
">((''''''''''']{^''''''''''''''''''''''''''^'''/_>",
">:(((((((/(((((<,[(([[}(((((((((((((((((((((((((:>",
">::::::::::::::::::::::::::::::::::::::::::::::::>",
" ->>>>->>>$>>;;>>>>>>>>>>>>>>>>>>>>>.$$$.>>>>>>>> ",
"        $|||>                        >|||>        ",
"        $|11>                        >11|>        ",
"        $|11>                        >11|>        ",
"         ;|1>                        >1|>>        ",
"         >||>                        >||>         ",
"          >>                          >>          "};
