/* XPM */
static char *dummy[]={
"50 50 62 1",
"h c #1e1d1c",
". c #1f1e1d",
"F c #201f1e",
"E c #21201f",
"o c #22201f",
"B c #222120",
"U c #232221",
"w c #242322",
"D c #252423",
"t c #262524",
"T c #272625",
"H c #282726",
"4 c #292726",
"5 c #292826",
"g c #292827",
"s c #2a2827",
"C c #2a2928",
"u c #2b2928",
"A c #2b2a29",
"# c #2c2a29",
"0 c #2c2b29",
"Q c #2c2b2a",
"p c #2d2b2a",
"W c #2d2c2a",
"z c #2d2c2b",
"f c #2e2c2b",
"V c #2e2d2b",
"O c #2e2d2c",
"y c #2f2d2c",
"R c #2f2e2d",
"x c #302e2d",
"m c #302f2d",
"1 c #302f2e",
"v c #312f2e",
"J c #31302e",
"Y c #31302f",
"q c #32302f",
"i c #32312f",
"a c #333130",
"Z c #333230",
"r c #343231",
"2 c #343331",
"7 c #343332",
"b c #353332",
"M c #363433",
"6 c #363533",
"X c #363534",
"n c #373534",
"N c #373634",
"3 c #373635",
"c c #383635",
"S c #383735",
"P c #383736",
"l c #393736",
"G c #393836",
"k c #3a3837",
"d c #3a3937",
"j c #3a3938",
"L c #3b3938",
"I c #3b3a38",
"K c #3b3a39",
"e c #3c3b39",
"..#aaabcccccccccccccdefghgijeekccccchhhhhhhhhhhhhh",
"hfaaaaaaaaaaaaaaaaaaleafhmeeeenaaaaaohhhhhhhhhhhhh",
"paaaaqaaaaaaaaaaaaaarbsthmenbbraaaaauhhhhhhhhhhhhh",
"aaqaavaqqaaaqqaaaaaaaatwhmebaaaaaaaaahhhhhhhhhhhhh",
"aqaaaaaxfaaayxaaaaaaaatwhmebaaaaaaaaahhhhhhhhhhhhh",
"aqaaaaavxaaaxxaaaaaaaatwhmebaaaaqqaaahhhhhhhhhhhhh",
"aaaaaaaaaaaaaaaaaaaaaatwhmebaaaafxaaahhhhhhhhhhhhh",
"aaaaqaaaaaaaaaaaaaagggtwhmezggxaqqaaahhhhhhhhhhhhh",
"aaaaqaaaaaaaaaaaaaattttwhmeAttyaaaaaahhhhhhhhhhhhh",
"qaaa#ttttttttttttttttttwhBttttttttttwhhhhhhhhhhhhh",
"uCCDBBBBBBBBBBBBBBBBBBBEhFBBBBBBBBBBhhhhhhhhhhhhhh",
"hhhhhhhhhhhhhhhhhhhhhhhhhhhhhhhhhhhhhhhhhhhhhhhhhh",
"GGGGGGGGGDEhwAGGGGGGGGGGGGGGGGGGGGGHhhhhhhhhhhhhhh",
"dddddddIeswhAJKeeLdddddddddddddddIeiBhhhhhhhhhhhhh",
"aaaaaaakeaghGKeeeMaaaaaaaaaaaaaaanenqhhhhhhhhhhhhh",
"aaaaaaaNlOthGIlllraaaaaaaqvaaaaaablaz.hhhhhhhhhhhh",
"aaaaaaaaatBhGdaaaaaaaaaaavfqaaaaaaa#thhhhhhhhhhhhh",
"aaxxaaaaatBhGdaaaaayvaaaaqqaayyyaaa#t.hhhhhhhhhhhh",
"aayyaaaaatBhGdaaaaafvaaaaaaaafffaaa#t.hhhhhhhhhhhh",
"aaaaaaaaatBhGdaaaaaaaaaaaaaaaaaaaaa#t.hhhhhhhhhhhh",
"aaaaavAAAtBhGPQAAvaaaaaaaaaaaaaaAAAHt.hhhhhhhhhhhh",
"aaaaaRttttBhGSTttvaaaaaaaaaaaaaattttthhhhhhhhhhhhh",
"ttttttttttBhtTttttttttttttttttttttttBhhhhhhhhhhhhh",
"wwwwwwwwwwEhUwwwwwwwwwwwwwwwwwwwwwwwhhhhhhhhhhhhhh",
"hhhhhhhhhhhhhhhhhhhhhhhhhhhhhhhhhhhhhhhhhhhhhhhhhh",
"gmmmmmmmmmmmmmmmmmmmmmUEhFBVmmmmmmmWhhhhhhhhhhhhhh",
"ieeeeeeeeeeeeeeeeeeeeeTwhBtGeeeeeeeeWhhhhhhhhhhhhh",
"jeeIMbbbbbbbbbbbbbbbGeJQhVGKeecbbbbbbhhhhhhh.hhhhh",
"eeedraaaaaaaaaaaaaaaleazhmeeeenaaaaavhhhhhhhhhhhhh",
"caaaaqfqaaaaaaavfffaaatwhmebaaaaaaaaxhhhhhhhhhhhhh",
"caaaaqvqaaaaaaaqvvvaaatwhmebaaaaaaaafhhhhhhhhhhhhh",
"caaaaaaaaaaaaaaaaaaaaatwhmebaaaaaaaaphhhhhhhhhhhhh",
"caaaaaaaafvaaaaaaaaaaatwhmebaaaaavfvQhhhhhhhhhhhhh",
"XyyRaaaaaxvaaaaqvaayyytwhmeYyyvaaqxq#hhhhhhhhhhhhh",
"ZttgqaaaaaaaaaavfqattttwhmeAttyaaaaaAhhhhhhhhhhhhh",
"0ttTA##########ugA#ttttwhH1HttC#####Fhhhhhhhhhhhhh",
"tttttttttttttttttttttttUhBtttttttttBhhhhhhhhhhhhhh",
"........................h...........hhhhhhhhhhhhhh",
"UUUUUUUUU.hh.FUUUUUUUUUUUUUUUUUUUUUEhhhhhhhhhhhhhh",
"eeeeeeeeetBhDQIeeeeeeeeeeeeeeeeeeee1.hhhhhhhhhhhhh",
"MMMMMMMLexTh23eeecMMMMMMMMMMMMMMMSeb4hhhhhhhhhhhhh",
"aaaaaaakeaghGeeeebaaaaaaaaaaaaaaanenAhhhhhhhhhhhhh",
"aaaqfxaaatBhGdaaayffvaaaaaaaaaxfaaa#Uhhhhhhhhhhhhh",
"aavvxvaaatBhGdaaavxxqaaaaqvaaavxaaa#whhhhhhhhhhhhh",
"aayyaaaaatBhGdaaaaaaaaaaavfqaaaaaaa#whhhhhhhhhhhhh",
"aaqqaaaaatBhGdaaaaaavxaaaqqaaaaaaaa#Dhhhhhhhhhhhhh",
"aaaaaaqqqtBhGkqqqaaavyaaaaaaaaaaqqqADhhhhhhhhhhhhh",
"FaaaaxHHHtBhGS5HHvaaaqaaaaaaaaaaHHHTthhhhhhhhhhhhh",
"hH111fttttBh67Ttty11111111111111tttt.hhhhhhhhhhhhh",
"hhEtttttttBhDtttttttttttttttttttttt.hhhhhhhhhhhhhh"};
