/* XPM */
static char *dummy[]={
"50 50 62 1",
"# c #1e1d1c",
". c #1f1e1d",
"t c #201f1e",
"d c #21201f",
"i c #222120",
"a c #232221",
"e c #242322",
"c c #252423",
"D c #262524",
"R c #272625",
"j c #282726",
"5 c #292826",
"s c #292827",
"n c #2a2827",
"1 c #2a2928",
"3 c #2b2928",
"f c #2b2a29",
"K c #2c2a29",
"2 c #2c2b29",
"u c #2c2b2a",
"Z c #2d2b2a",
"7 c #2d2c2a",
"H c #2d2c2b",
"J c #2e2c2b",
"U c #2e2d2b",
"g c #2e2d2c",
"M c #2f2d2c",
"S c #2f2e2c",
"P c #2f2e2d",
"L c #302e2d",
"T c #302f2d",
"X c #302f2e",
"F c #312f2e",
"o c #31302e",
"O c #31302f",
"A c #32302f",
"r c #32312f",
"w c #333130",
"0 c #333230",
"E c #343231",
"h c #343331",
"6 c #343332",
"G c #353332",
"4 c #353433",
"y c #363433",
"I c #363533",
"Y c #363534",
"z c #373534",
"C c #373634",
"v c #373635",
"W c #383635",
"Q c #383735",
"N c #383736",
"B c #393736",
"b c #393836",
"x c #3a3837",
"k c #3a3937",
"V c #3a3938",
"q c #3b3938",
"l c #3b3a38",
"p c #3b3a39",
"m c #3c3b39",
"..######.#########################################",
"##################################################",
"#########.########################################",
"##############################################.###",
"#########################################.########",
"##################################################",
"##################################################",
"##################################################",
"###.##############################################",
"##################################################",
"##########################...#####################",
"##################################################",
"#abbbbbbbcd#efbbbbbbbbbbbbbbbbbbbbbgc..chbbbbbbbi#",
"jkkkkkklmne#fopmmqkkkkkkkkkkkkkkklmrsttuvmmlkkkkkj",
"wwwwwwwxmws#bpmmmywwwwwwwwwwwwwwwzmzAialmmmBwwwwww",
"wwwwwwwCBgD#blBBBEwwwwwwwAFwwwwwwGBwHdamxBBIwwwwww",
"wwwwwwwwwDi#bkwwwwwwwwwwwFJAwwwwwwwKD.amywwwwwwwww",
"wwLLwwwwwDi#bkwwwwwMFwwwwAAwwMMMwwwKD.amywwwwLLwww",
"wwMMwwwwwDi#bkwwwwwJFwwwwwwwwJJJwwwKD.amywwwwLMAww",
"wwwwwwwwwDi#bkwwwwwwwwwwwwwwwwwwwwwKD.amywwwwwwwww",
"wwwwwFfffDi#bNuffFwwwwwwwwwwwwwwfffjD.amOffMwwwwww",
"wwwwwPDDDDi#bQRDDFwwwwwwwwwwwwwwDDDDD.amSDDuwwwwww",
"DDDDDDDDDDi#DRDDDDDDDDDDDDDDDDDDDDDDD..RDDDDDDDDDD",
"eeeeeeeeeed#aeeeeeeeeeeeeeeeeeeeeeeea..eeeeeeeeeee",
"##################################################",
"sTTTTTTTTTTTTTTTTTTTTTad#tiUTTTTTTTTTTTTTTTTTTTTHi",
"rmmmmmmmmmmmmmmmmmmmmmRe#iDbmmmmmmmmmmmmmmmmmmmmQD",
"VmmlyGGGGGGGGGGGGGGGbmou#UbpmmWGGGGGGGGGGGGGGGylkF",
"mmmkEwwwwwwwwwwwwwwwBmwH#TmmmmzwwwwwwwwwwwwwwwElkw",
"WwwwwAJAwwwwwwwFJJJwwwDe#TmGwwwwwwwwwMMwwwwwwwwwXD",
"WwwwwAFAwwwwwwwAFFFwwwDe#TmGwwwwwwwwwFFwwwwALAwwXD",
"WwwwwwwwwwwwwwwwwwwwwwDe#TmGwwwwwwwwwwwwwwwFJAwwXD",
"WwwwwwwwwJFwwwwwwwwwwwDe#TmGwwwwwFJFwwwwLJwwwwwwXD",
"YMMPwwwwwLFwwwwAFwwMMMDe#TmOMMFwwALAwwwwFLwwwLMMZD",
"0DDsAwwwwwwwwwwFJAwDDDDe#TmfDDMwwwwwwwwwwwwww1DDDD",
"2DDRfKKKKKKKKKK3sfKDDDDe#jXjDD1KKKKKKKKKKKKKKjDDDD",
"DDDDDDDDDDDDDDDDDDDDDDDa#iDDDDDDDDDDDDDDDDDDDDDDDD",
"........................#.........................",
"aaaaaaaaa.##.taaaaaaaaaaaaaaaaaaaaad.##.iaaaaaaaaa",
"mmmmmmmmmDi#culmmmmmmmmmmmmmmmmmmmmXD..DImmmmmmmmm",
"yyyyyyyqmLR#hvmmmWyyyyyyyyyyyyyyyQmGMdiIVmmxyyyyyy",
"wwwwwwwxmws#bmmmmGwwwwwwwwwwwwwwwzmzAiammmmBwwwwww",
"wwwAJLwwwDi#bkwwwMJJFwwwwwwwwwLJwwwKD.amywwwwwwwAJ",
"wwFFLFwwwDi#bkwwwFLLAwwwwAFwwwFLwwwKD.amywwAFAwwAL",
"wwMMwwwwwDi#bkwwwwwwwwwwwFJAwwwwwwwKD.amywwFJAwwww",
"wwAAwwwwwDi#bkwwwwwwFLwwwAAwwwwwwwwKD.amywwAAwwwww",
"wwwwwwAAADi#bxAAAwwwFMwwwwwwwwwwAAAfD.am4AAAwwwwww",
"awwwwLjjjDi#bQ5jjFwwwAwwwwwwwwwwjjjRD.amPjjZwwwwAi",
"#eXXXJDDDDi#I6RDDMXXXXXXXXXXXXXXDDDDD.iQ7DD3XXXgd#",
"##tDDDDDDDi#cDDDDDDDDDDDDDDDDDDDDDDDD..DDDDDDDD.##"};
