/* XPM */
static char *dummy[]={
"50 50 61 1",
"# c #1e1d1c",
". c #1f1e1d",
"a c #201f1e",
"e c #21201f",
"w c #222120",
"O c #232221",
"f c #242322",
"d c #252423",
"q c #262524",
"Q c #272624",
"N c #272625",
"K c #282726",
"3 c #292726",
"4 c #292826",
"t c #292827",
"m c #2a2827",
"1 c #2a2928",
"Z c #2b2928",
"g c #2b2a29",
"G c #2c2a29",
"Y c #2c2b29",
"J c #2c2b2a",
"U c #2d2b2a",
"T c #2d2c2b",
"F c #2e2c2b",
"P c #2e2d2b",
"z c #2e2d2c",
"H c #2f2d2c",
"L c #2f2e2d",
"E c #302e2d",
"h c #302f2d",
"0 c #302f2e",
"C c #312f2e",
"n c #31302e",
"W c #31302f",
"B c #32302f",
"b c #32312f",
"r c #333130",
"X c #333230",
"A c #343231",
"i c #343331",
"6 c #343332",
"D c #353332",
"u c #363433",
"5 c #363533",
"V c #363534",
"v c #373534",
"x c #373634",
"2 c #373635",
"S c #383635",
"M c #383735",
"I c #383736",
"y c #393736",
"c c #393836",
"s c #3a3837",
"j c #3a3937",
"R c #3a3938",
"p c #3b3938",
"k c #3b3a38",
"o c #3b3a39",
"l c #3c3b39",
".####################################.############",
"######################################..##########",
"##################################################",
"##################################################",
"##################################################",
"##################################################",
"##################################################",
"#################################################.",
"##################################################",
"##################################################",
"##################################################",
"##################################################",
"abcccccccde#fgccccccccccccccch######.#############",
"ijjjjjjklmf#gnollpjjjjjjjjjjjjjcccq###############",
"rrrrrrrslrt#colllurrrrrrrrrrrrrrrvlw##############",
"rrrrrrrxyzq#ckyyyArrrrrrrBCrrrrrrDyE##############",
"rrrrrrrrrqw#cjrrrrrrrrrrrCFBrrrrrrrG.#############",
"rrEErrrrrqw#cjrrrrrHCrrrrBBrrHHHrrrG.#############",
"rrHHrrrrrqw#cjrrrrrFCrrrrrrrrFFFrrrGa#############",
"rrrrrrrrrqw#cjrrrrrrrrrrrrrrrrrrrrrGa#############",
"rrrrrCgggqw#cIJggCrrrrrrrrrrrrrrgggKe#############",
"rrrrrLqqqqw#cMNqqCrrrrrrrrrrrrrrqqqqe#############",
"qqqqqqqqqqw#qNqqqqqqqqqqqqqqqqqqqqqqw#############",
"ffffffffffe#Offfffffffffffffffffffffe#############",
"##################################################",
"thhhhhhhhhhhhhhhhhhhhhOe#awPhhhhhhhQ###########.##",
"blllllllllllllllllllllNf#wqcllllllllw#############",
"RllkuDDDDDDDDDDDDDDDclnJ#PcollSDDDDDF#############",
"llljArrrrrrrrrrrrrrrylrT#hllllvrrrrrU#############",
"SrrrrBFBrrrrrrrCFFFrrrqf#hlDrrrrrrrrT#############",
"SrrrrBCBrrrrrrrBCCCrrrqf#hlDrrrrrrrrF#############",
"Srrrrrrrrrrrrrrrrrrrrrqf#hlDrrrrrrrrE#############",
"SrrrrrrrrFCrrrrrrrrrrrqf#hlDrrrrrCFCC#############",
"VHHLrrrrrECrrrrBCrrHHHqf#hlWHHCrrBEBr#############",
"XqqtBrrrrrrrrrrCFBrqqqqf#hlgqqHrrrrrr#############",
"YqqNgGGGGGGGGGGZtgGqqqqf#K0Kqq1GGGGGG#############",
"qqqqqqqqqqqqqqqqqqqqqqqO#wqqqqqqqqqqq#############",
"........................#............#############",
"OOOOOOOOO.##.aOOOOOOOOOOOOOOOOOOOOOe##############",
"lllllllllqw#dJkllllllllllllllllllll0w#############",
"uuuuuuuplEN#i2lllSuuuuuuuuuuuuuuuMlD3#############",
"rrrrrrrslrt#cllllDrrrrrrrrrrrrrrrvlv1#############",
"rrrBFErrrqw#cjrrrHFFCrrrrrrrrrEFrrrGO#############",
"rrCCECrrrqw#cjrrrCEEBrrrrBCrrrCErrrGO#############",
"rrHHrrrrrqw#cjrrrrrrrrrrrCFBrrrrrrrGO#############",
"rrBBrrrrrqw#cjrrrrrrCErrrBBrrrrrrrrGO#############",
"rrrrrrBBBqw#csBBBrrrCHrrrrrrrrrrBBBgO#############",
"rrrrrEKKKqw#cM4KKCrrrBrrrrrrrrrrKKKNO#############",
"00000Fqqqqw#56NqqH00000000000000qqqqw#############",
"qqqqqqqqqqw#dqqqqqqqqqqqqqqqqqqqqqqf##############"};
