/* XPM */
static char *dummy[]={
"50 50 60 1",
"# c #1e1d1c",
"Y c #1f1d1c",
". c #1f1e1d",
"a c #201e1d",
"b c #201f1e",
"D c #21201f",
"w c #222120",
"x c #232221",
"i c #242322",
"g c #252423",
"J c #262524",
"Q c #272625",
"c c #282726",
"G c #292826",
"p c #292827",
"0 c #2a2928",
"1 c #2b2928",
"N c #2b2a29",
"I c #2c2a29",
"q c #2c2b2a",
"Z c #2d2b2a",
"5 c #2d2c2a",
"C c #2d2c2b",
"H c #2e2c2b",
"T c #2e2d2b",
"f c #2e2d2c",
"K c #2f2d2c",
"R c #2f2e2c",
"j c #2f2e2d",
"L c #302e2d",
"S c #302f2d",
"X c #302f2e",
"A c #312f2e",
"U c #31302e",
"O c #31302f",
"v c #32302f",
"o c #32312f",
"t c #333130",
"4 c #333231",
"z c #343231",
"h c #343331",
"B c #353332",
"3 c #353433",
"s c #363433",
"F c #363533",
"u c #373534",
"d c #373634",
"r c #373635",
"W c #383635",
"P c #383735",
"M c #383736",
"y c #393736",
"e c #393836",
"E c #3a3837",
"m c #3a3937",
"2 c #3a3938",
"l c #3b3938",
"n c #3b3a38",
"V c #3b3a39",
"k c #3c3b39",
"..##############.#################################",
"##################################################",
"##################################################",
"##################################################",
"##################################################",
"#######.##########################################",
"##################################################",
"##################################################",
"#####################################a############",
"##################################################",
"##################################################",
"##################################################",
"###############bcdeeeeeeeeeeeeeeeeefg..gheeeeeeeei",
"##############jkklmmmmmmmmmmmmmmmnkopbbqrkknmmmmmm",
"#############qkkkstttttttttttttttukuvwxnkkkytttttt",
"############xnyyyztttttttvAttttttBytCDxkEyyFtttttt",
"############GmtttttttttttAHvtttttttIJ.xksttttttttt",
"############hmtttttKAttttvvttKKKtttIJ.xksttttLLttt",
"############emtttttHAttttttttHHHtttIJ.xksttttLKvtt",
"############emtttttttttttttttttttttIJ.xksttttttttt",
".###########eMqNNAttttttttttttttNNNcJ.xkONNKtttttt",
".###########ePQJJAttttttttttttttJJJJJ.xkRJJqtttttt",
"############gQJJJJJJJJJJJJJJJJJJJJJJJ..QJJJJJJJJJJ",
"#############iiiiiiiiiiiiiiiiiiiiiiix..iiiiiiiiiii",
"##################################################",
"############.SSSSSSSSSxD#bwTSSSSSSSSSSSSSSSSSSSSCw",
"############UkkkkkkkkkQi#wJekkkkkkkkkkkkkkkkkkkkPJ",
"############BBBBBBBBekUq#TeVkkWBBBBBBBBBBBBBBBsnmA",
"###########.ttttttttyktC#Skkkkutttttttttttttttznmt",
"############tttAHHHtttJi#SkBtttttttttKKtttttttttXJ",
"############tttvAAAtttJi#SkBtttttttttAAttttvLvttXJ",
"#########Y##ttttttttttJi#SkBtttttttttttttttAHvttXJ",
"############ttttttttttJi#SkBtttttAHAttttLHttttttXJ",
"############tttvAttKKKJi#SkOKKAttvLvttttALtttLKKZJ",
"############tttAHvtJJJJi#SkNJJKtttttttttttttt0JJJJ",
"############III1pNIJJJJi#cXcJJ0IIIIIIIIIIIIIIcJJJJ",
"############DJJJJJJJJJJx#wJJJJJJJJJJJJJJJJJJJJJJJJ",
"#############...........#.........................",
"############.bxxxxxxxxxxxxxxxxxxxxxD.##.wxxxxxxxxx",
"############gqnkkkkkkkkkkkkkkkkkkkkXJ..JFkkkkkkkkk",
"############hrkkkWsssssssssssssssPkBKDwF2kkEssssss",
"############ekkkkBtttttttttttttttukuvwxkkkkytttttt",
"############emtttKHHAtttttttttLHtttIJ.xkstttttttvH",
"##.#########emtttALLvttttvAtttALtttIJ.xksttvAvttvL",
"##.#########emtttttttttttAHvtttttttIJ.xksttAHvtttt",
"############emttttttALtttvvttttttttIJ.xksttvvttttt",
"############eEvvvtttAKttttttttttvvvNJ.xk3vvvtttttt",
"############jPGccAtttvttttttttttcccQJ.xkjccZtttttt",
"############b4QJJKXXXXXXXXXXXXXXJJJJJ.wP5JJ1XXXXXX",
"#############bJJJJJJJJJJJJJJJJJJJJJJJ..JJJJJJJJJJJ"};
