/* XPM */
static char * C:\Users\Utilisateur\Desktop\wall_xpm[] = {
"50 50 63 1",
" 	c None",
".	c #373634",
"+	c #3C3B39",
"@	c #3B3A38",
"#	c #393736",
"$	c #383635",
"%	c #3A3937",
"&	c #2E2C2B",
"*	c #292827",
"=	c #1E1D1C",
"-	c #32312F",
";	c #3A3938",
">	c #3A3837",
",	c #393836",
"'	c #2D2B2A",
")	c #3B3938",
"!	c #343231",
"~	c #333130",
"{	c #302F2D",
"]	c #373534",
"^	c #353332",
"/	c #302E2D",
"(	c #2A2827",
"_	c #262524",
":	c #2F2D2C",
"<	c #32302F",
"[	c #242322",
"}	c #302F2E",
"|	c #312F2E",
"1	c #343332",
"2	c #2B2A29",
"3	c #2D2C2B",
"4	c #333230",
"5	c #2A2928",
"6	c #222120",
"7	c #21201F",
"8	c #201F1E",
"9	c #252423",
"0	c #2E2D2C",
"a	c #1F1E1D",
"b	c #343331",
"c	c #31302E",
"d	c #3B3A39",
"e	c #2C2B2A",
"f	c #373635",
"g	c #363433",
"h	c #232221",
"i	c #363533",
"j	c #2C2A29",
"k	c #383736",
"l	c #282726",
"m	c #31302F",
"n	c #2F2E2D",
"o	c #383735",
"p	c #272625",
"q	c #2F2E2C",
"r	c #2E2D2B",
"s	c #363534",
"t	c #2C2B29",
"u	c #2B2928",
"v	c #353433",
"w	c #292826",
"x	c #2D2C2A",
".++@#$$$$$$$$$$$$$$$%+&*=*-;++>$$$$$$$$$$$$$$$#+,'",
"+++)!~~~~~~~~~~~~~~~#+~&={++++]~~~~~~~~~~~~~~~!@%~",
"#^^!//~~~~~~~~~~~~~~!^(_={+]^^!~~~~~~//~/:~~~~~^~*",
"$~~<:/~<<~~~<<~~~~~~~~_[={+^~~~~~~~~~/:~/:~~~~~~}_",
"$~~~~~~/&~~~:/~~~~~~~~_[={+^~~~~~~~~~~~~~~~~~~~~}_",
"$~~~~~~|/~~~//~~~~~~~~_[={+^~~~~<<~~~~~~~~~~~~~~}_",
"$~~~~~~~~~~~~~~~~~~~~~_[={+^~~~~&/~~~~~~~~~~~~~~}_",
"1**2<~~~~~~~~~~~~~~***_[={+3**/~<<~~~~~~~~~~~'***_",
"4__*<~~~~~~~~~~~~~~____[={+2__:~~~~~~~~~~~~~~5____",
"_______________________[=6________________________",
"666666666666666666666667=8666666666666666666666666",
"==================================================",
",,,,,,,,,97=[2,,,,,,,,,,,,,,,,,,,,,09aa9b,,,,,,,,,",
"%%%%%%%@+([=2cd++)%%%%%%%%%%%%%%%@+-*88ef++@%%%%%%",
"~~~~~~~>+~*=,d+++g~~~~~~~~~~~~~~~]+]<6h@+++#~~~~~~",
"~~~~~~~.#0_=,@###!~~~~~~~<|~~~~~~^#~37h+>##i~~~~~~",
"~~~~~~~~~_6=,%~~~~~~~~~~~|&<~~~~~~~j_ah+g~~~~~~~~~",
"~~//~~~~~_6=,%~~~~~:|~~~~<<~~:::~~~j_ah+g~~~~//~~~",
"~~::~~~~~_6=,%~~~~~&|~~~~~~~~&&&~~~j_ah+g~~~~/:<~~",
"~~~~~~~~~_6=,%~~~~~~~~~~~~~~~~~~~~~j_ah+g~~~~~~~~~",
"~~~~~|222_6=,ke22|~~~~~~~~~~~~~~222l_ah+m22:~~~~~~",
"~~~~~n____6=,op__|~~~~~~~~~~~~~~_____ah+q__e~~~~~~",
"__________6=_p_______________________aap__________",
"[[[[[[[[[[7=h[[[[[[[[[[[[[[[[[[[[[[[haa[[[[[[[[[[[",
"==================================================",
"*{{{{{{{{{{{{{{{{{{{{{h7=86r{{{{{{{{{{{{{{{{{{{{36",
"-+++++++++++++++++++++p[=6_,++++++++++++++++++++o_",
";++@g^^^^^^^^^^^^^^^,+ce=r,d++$^^^^^^^^^^^^^^^g@%|",
"+++%!~~~~~~~~~~~~~~~#+~3={++++]~~~~~~~~~~~~~~~!@%~",
"$~~~~<&<~~~~~~~|&&&~~~_[={+^~~~~~~~~~::~~~~~~~~~}_",
"$~~~~<|<~~~~~~~<|||~~~_[={+^~~~~~~~~~||~~~~</<~~}_",
"$~~~~~~~~~~~~~~~~~~~~~_[={+^~~~~~~~~~~~~~~~|&<~~}_",
"$~~~~~~~~&|~~~~~~~~~~~_[={+^~~~~~|&|~~~~/&~~~~~~}_",
"s::n~~~~~/|~~~~<|~~:::_[={+m::|~~</<~~~~|/~~~/::'_",
"4__*<~~~~~~~~~~|&<~____[={+2__:~~~~~~~~~~~~~~5____",
"t__p2jjjjjjjjjju*2j____[=l}l__5jjjjjjjjjjjjjjl____",
"_______________________h=6________________________",
"aaaaaaaaaaaaaaaaaaaaaaaa=aaaaaaaaaaaaaaaaaaaaaaaaa",
"hhhhhhhhha==a8hhhhhhhhhhhhhhhhhhhhh7a==a6hhhhhhhhh",
"+++++++++_6=9e@++++++++++++++++++++}_aa_i+++++++++",
"ggggggg)+/p=bf+++$gggggggggggggggo+^:76i;++>gggggg",
"~~~~~~~>+~*=,++++^~~~~~~~~~~~~~~~]+]<6h++++#~~~~~~",
"~~~<&/~~~_6=,%~~~:&&|~~~~~~~~~/&~~~j_ah+g~~~~~~~<&",
"~~||/|~~~_6=,%~~~|//<~~~~<|~~~|/~~~j_ah+g~~<|<~~</",
"~~::~~~~~_6=,%~~~~~~~~~~~|&<~~~~~~~j_ah+g~~|&<~~~~",
"~~<<~~~~~_6=,%~~~~~~|/~~~<<~~~~~~~~j_ah+g~~<<~~~~~",
"~~~~~~<<<_6=,><<<~~~|:~~~~~~~~~~<<<2_ah+v<<<~~~~~~",
"~~~~~/lll_6=,owll|~~~<~~~~~~~~~~lllp_ah+nll'~~~~~~",
"}}}}}&____6=i1p__:}}}}}}}}}}}}}}_____a6ox__u}}}}}}",
"__________6=9________________________aa___________"};
