/* XPM */
static char *dummy[]={
"50 50 63 1",
"# c #1e1d1c",
"A c #1f1d1c",
". c #1f1e1d",
"H c #201f1e",
"I c #21201f",
"F c #222120",
"l c #232221",
"y c #242322",
"J c #252423",
"u c #262524",
"Z c #272625",
"w c #282726",
"6 c #292826",
"e c #292827",
"t c #2a2827",
"G c #2a2928",
"C c #2b2928",
"D c #2b2a29",
"U c #2c2a29",
"4 c #2c2b29",
"P c #2c2b2a",
"k c #2d2b2a",
"8 c #2d2c2a",
"E c #2d2c2b",
"a c #2e2c2b",
"1 c #2e2d2b",
"K c #2e2d2c",
"v c #2f2d2c",
"0 c #2f2e2c",
"X c #2f2e2d",
"r c #302e2d",
"n c #302f2d",
"z c #302f2e",
"B c #312f2e",
"M c #31302e",
"W c #31302f",
"x c #32302f",
"f c #32312f",
"m c #333130",
"3 c #333230",
"p c #343231",
"L c #343331",
"7 c #343332",
"s c #353332",
"5 c #353433",
"R c #363433",
"T c #363533",
"2 c #363534",
"o c #373534",
"S c #373634",
"Q c #373635",
"b c #383635",
"Y c #383735",
"V c #383736",
"i c #393736",
"j c #393836",
"h c #3a3837",
"c c #3a3937",
"g c #3a3938",
"O c #3b3938",
"q c #3b3a38",
"N c #3b3a39",
"d c #3c3b39",
"..###abbbbbbbbbbbbbbcdae#efgddhbbbbbbbbbbbbbbbidjk",
"####lmmmmmmmmmmmmmmmidma#nddddommmmmmmmmmmmmmmpqcm",
"###.rrmmmmmmmmmmmmmmpstu#ndosspmmmmmmrrmrvmmmmmsme",
"###wvrmxxmmmxxmmmmmmmmuy#ndsmmmmmmmmmrvmrvmmmmmmzu",
"##Ammmmrammmvrmmmmmmmmuy#ndsmmmmmmmmmmmmmmmmmmmmzu",
"##lmmmmBrmmmrrmmmmmmmmuy#ndsmmmmxxmmmmmmmmmmmmmmzu",
"##Cmmmmmmmmmmmmmmmmmmmuy#ndsmmmmarmmmmmmmmmmmmmmzu",
"##uDxmmmmmmmmmmmmmmeeeuy#ndEeermxxmmmmmmmmmmmkeeeu",
"##Fexmmmmmmmmmmmmmmuuuuy#ndDuuvmmmmmmmmmmmmmmGuuuu",
".#.uuuuuuuuuuuuuuuuuuuuy#Fuuuuuuuuuuuuuuuuuuuuuuuu",
".##HFFFFFFFFFFFFFFFFFFFI#HFFFFFFFFFFFFFFFFFFFFFFFF",
"##################################################",
"jjjjjjjjjJI#yDjjjjjjjjjjjjjjjjjjjjjKJ..JLjjjjjjjjj",
"cccccccqdty#DMNddOcccccccccccccccqdfeHHPQddqcccccc",
"mmmmmmmhdme#jNdddRmmmmmmmmmmmmmmmodoxFlqdddimmmmmm",
"mmmmmmmSiKu#jqiiipmmmmmmmxBmmmmmmsimEIldhiiTmmmmmm",
"mmmmmmmmmuF#jcmmmmmmmmmmmBaxmmmmmmmUu.ldRmmmmmmmmm",
"mmrrmmmmmuF#jcmmmmmvBmmmmxxmmvvvmmmUu.ldRmmmmrrmmm",
"mmvvmmmmmuF#jcmmmmmaBmmmmmmmmaaammmUu.ldRmmmmrvxmm",
"mmmmmmmmmuF#jcmmmmmmmmmmmmmmmmmmmmmUu.ldRmmmmmmmmm",
"mmmmmBDDDuF#jVPDDBmmmmmmmmmmmmmmDDDwu.ldWDDvmmmmmm",
"mmmmmXuuuuF#jYZuuBmmmmmmmmmmmmmmuuuuu.ld0uuPmmmmmm",
"uuuuuuuuuuF#uZuuuuuuuuuuuuuuuuuuuuuuu..Zuuuuuuuuuu",
"yyyyyyyyyyI#lyyyyyyyyyyyyyyyyyyyyyyyl..yyyyyyyyyyy",
"##################################################",
"ennnnnnnnnnnnnnnnnnnnnlI#HF1nnnnnnnnnnnnnnnnnnnnEF",
"fdddddddddddddddddddddZy#FujddddddddddddddddddddYu",
"gddqRsssssssssssssssjdMP#1jNddbsssssssssssssssRqcB",
"dddcpmmmmmmmmmmmmmmmidmE#nddddommmmmmmmmmmmmmmpqcm",
"bmmmmxaxmmmmmmmBaaammmuy#ndsmmmmmmmmmvvmmmmmmmmmzu",
"bmmmmxBxmmmmmmmxBBBmmmuy#ndsmmmmmmmmmBBmmmmxrxmmzu",
"bmmmmmmmmmmmmmmmmmmmmmuy#ndsmmmmmmmmmmmmmmmBaxmmzu",
"bmmmmmmmmaBmmmmmmmmmmmuy#ndsmmmmmBaBmmmmrammmmmmzu",
"2vvXmmmmmrBmmmmxBmmvvvuy#ndWvvBmmxrxmmmmBrmmmrvvku",
"3uuexmmmmmmmmmmBaxmuuuuy#ndDuuvmmmmmmmmmmmmmmGuuuu",
"4uuZDUUUUUUUUUUCeDUuuuuy#wzwuuGUUUUUUUUUUUUUUwuuuu",
"uuuuuuuuuuuuuuuuuuuuuuul#Fuuuuuuuuuuuuuuuuuuuuuuuu",
"........................#.........................",
"lllllllll.##.HlllllllllllllllllllllI.##.Flllllllll",
"ddddddddduF#JPqddddddddddddddddddddzu..uTddddddddd",
"RRRRRRROdrZ#LQdddbRRRRRRRRRRRRRRRYdsvIFTgddhRRRRRR",
"mmmmmmmhdme#jddddsmmmmmmmmmmmmmmmodoxFlddddimmmmmm",
"mmmxarmmmuF#jcmmmvaaBmmmmmmmmmrammmUu.ldRmmmmmmmxa",
"mmBBrBmmmuF#jcmmmBrrxmmmmxBmmmBrmmmUu.ldRmmxBxmmxr",
"mmvvmmmmmuF#jcmmmmmmmmmmmBaxmmmmmmmUu.ldRmmBaxmmmm",
"mmxxmmmmmuF#jcmmmmmmBrmmmxxmmmmmmmmUu.ldRmmxxmmmmm",
"mmmmmmxxxuF#jhxxxmmmBvmmmmmmmmmmxxxDu.ld5xxxmmmmmm",
"mmmmmrwwwuF#jY6wwBmmmxmmmmmmmmmmwwwZu.ldXwwkmmmmmm",
"zzzzzauuuuF#T7Zuuvzzzzzzzzzzzzzzuuuuu.FY8uuCzzzzzz",
"uuuuuuuuuuF#Juuuuuuuuuuuuuuuuuuuuuuuu..uuuuuuuuuuu"};
